<svg xmlns="http://www.w3.org/2000/svg" viewBox="0 0 1690.82 454.86"><defs><style>.cls-1{fill:#fff;}</style></defs><g id="Layer_2" data-name="Layer 2"><g id="Layer_1-2" data-name="Layer 1"><path class="cls-1" d="M25.19,100.54l-6.38,25.19H10.5L0,89.05H8.74l6.44,26.51,7-26.51h6.11l6.93,26.51,6.37-26.51h8.8L39.92,125.73h-8.3Z"/><path class="cls-1" d="M75,119.41H58.63l-2.31,6.32H47.74L61.93,89.05h9.79l14.13,36.68H77.33Zm-14.3-6.77H72.87L66.82,95.81Z"/><path class="cls-1" d="M94.21,95.93H83.49V89.05h29.26v6.88H102.08v29.8H94.21Z"/><path class="cls-1" d="M117.75,89.05h26v6.71H125.56v8h17.77v6.71H125.56V119h18.15v6.76h-26Z"/><path class="cls-1" d="M163.35,112.59h-5.72v13.14h-7.81V89.05H167c7.64,0,12.31,5,12.31,11.82,0,6.49-4.06,10-8,10.89l8.24,14h-9Zm2.47-16.83h-8.19v10.12h8.19c3.14,0,5.5-2,5.5-5.06S169,95.76,165.82,95.76Z"/><path class="cls-1" d="M1149.46,222.32l-6.38,25.19h-8.31l-10.5-36.68H1133l6.44,26.51,7-26.51h6.11l6.93,26.51,6.37-26.51h8.8l-10.45,36.68h-8.3Z"/><path class="cls-1" d="M1199.29,241.19H1182.9l-2.31,6.32H1172l14.19-36.68H1196l14.13,36.68h-8.52Zm-14.3-6.77h12.15l-6.05-16.83Z"/><path class="cls-1" d="M1218.48,217.7h-10.72v-6.87H1237v6.87h-10.67v29.81h-7.87Z"/><path class="cls-1" d="M1242,210.83h26v6.71h-18.15v8h17.77v6.71h-17.77v8.53H1268v6.76h-26Z"/><path class="cls-1" d="M1287.62,234.37h-5.72v13.14h-7.81V210.83h17.16c7.64,0,12.31,5,12.31,11.82,0,6.49-4.06,10-8,10.89l8.24,14h-9Zm2.47-16.83h-8.19v10.12h8.19c3.14,0,5.5-2,5.5-5.06S1293.23,217.54,1290.09,217.54Z"/><path class="cls-1" d="M293.9,269.45a17.19,17.19,0,0,1,15.18,8L302.59,281a10.41,10.41,0,0,0-8.69-4.62c-6.65,0-11.49,5.12-11.49,12.05s4.84,12,11.49,12a12.37,12.37,0,0,0,7.92-2.81v-4.45H292V286.5h17.49v14a20.35,20.35,0,0,1-15.62,6.93c-10.72,0-19.52-7.48-19.52-19S283.18,269.45,293.9,269.45Z"/><path class="cls-1" d="M338.73,300.41H322.34L320,306.74h-8.58l14.19-36.68h9.79l14.13,36.68H341Zm-14.3-6.76h12.15l-6.05-16.83Z"/><path class="cls-1" d="M354.35,295.63A16.09,16.09,0,0,0,366,300.58c4.29,0,6.38-2,6.38-4.12,0-2.75-3.19-3.69-7.43-4.68-6-1.37-13.69-3-13.69-11.22,0-6.1,5.28-11.05,13.91-11.05,5.83,0,10.67,1.76,14.3,5.11l-4.34,5.72a15.65,15.65,0,0,0-10.51-4c-3.52,0-5.39,1.54-5.39,3.74,0,2.47,3.08,3.24,7.32,4.23,6.05,1.38,13.75,3.19,13.75,11.33,0,6.71-4.79,11.77-14.69,11.77-7,0-12.1-2.37-15.56-5.83Z"/><path class="cls-1" d="M1478.51,357.9a17.2,17.2,0,0,1,15.18,8l-6.49,3.52a10.43,10.43,0,0,0-8.69-4.62c-6.65,0-11.49,5.12-11.49,12.05s4.84,12,11.49,12a12.42,12.42,0,0,0,7.92-2.81v-4.45h-9.79V375h17.49v14a20.37,20.37,0,0,1-15.62,6.93c-10.72,0-19.52-7.48-19.52-19S1467.79,357.9,1478.51,357.9Z"/><path class="cls-1" d="M1523.33,388.86H1507l-2.31,6.33h-8.58l14.19-36.68H1520l14.14,36.68h-8.53ZM1509,382.1h12.15l-6-16.83Z"/><path class="cls-1" d="M1539,384.08a16.09,16.09,0,0,0,11.66,4.95c4.28,0,6.37-2,6.37-4.13,0-2.75-3.18-3.68-7.42-4.67-6-1.38-13.69-3-13.69-11.22,0-6.1,5.28-11.05,13.91-11.05,5.83,0,10.67,1.76,14.3,5.11l-4.35,5.72a15.64,15.64,0,0,0-10.5-4c-3.52,0-5.39,1.54-5.39,3.74,0,2.47,3.08,3.24,7.32,4.23,6,1.38,13.74,3.19,13.74,11.33,0,6.71-4.78,11.77-14.68,11.77-7,0-12.1-2.37-15.56-5.83Z"/><path class="cls-1" d="M849.2,434.49h14.16v3.66h-9.9v4.35h9.69v3.66h-9.69v4.65h9.9v3.69H849.2Z"/><path class="cls-1" d="M866.69,434.49H871v16.26h8.46v3.75H866.69Z"/><path class="cls-1" d="M882.38,434.49h14.16v3.66h-9.9v4.35h9.69v3.66h-9.69v4.65h9.9v3.69H882.38Z"/><path class="cls-1" d="M898.91,444.51a10.13,10.13,0,0,1,10.5-10.35,9.23,9.23,0,0,1,8.52,4.89l-3.66,1.8a5.48,5.48,0,0,0-4.86-2.91c-3.48,0-6.12,2.79-6.12,6.57s2.64,6.57,6.12,6.57a5.42,5.42,0,0,0,4.86-2.91l3.66,1.77a9.29,9.29,0,0,1-8.52,4.92A10.13,10.13,0,0,1,898.91,444.51Z"/><path class="cls-1" d="M925.1,438.24h-5.85v-3.75h16v3.75h-5.82V454.5H925.1Z"/><path class="cls-1" d="M945.32,447.33H942.2v7.17h-4.26v-20h9.36c4.17,0,6.72,2.73,6.72,6.45a5.74,5.74,0,0,1-4.38,5.94l4.5,7.62h-4.89Zm1.35-9.18H942.2v5.52h4.47a2.77,2.77,0,1,0,0-5.52Z"/><path class="cls-1" d="M957.23,434.49h4.26v20h-4.26Z"/><path class="cls-1" d="M964.49,444.51A10.13,10.13,0,0,1,975,434.16a9.23,9.23,0,0,1,8.52,4.89l-3.66,1.8a5.48,5.48,0,0,0-4.86-2.91c-3.48,0-6.12,2.79-6.12,6.57s2.64,6.57,6.12,6.57a5.42,5.42,0,0,0,4.86-2.91l3.66,1.77a9.29,9.29,0,0,1-8.52,4.92A10.13,10.13,0,0,1,964.49,444.51Z"/><path class="cls-1" d="M986.06,434.49h4.26v20h-4.26Z"/><path class="cls-1" d="M998.9,438.24h-5.85v-3.75h16v3.75h-5.82V454.5H998.9Z"/><path class="cls-1" d="M1017.31,446.31l-7.7-11.82h4.86l5,8,4.92-8h4.86l-7.65,11.82v8.19h-4.27Z"/><path class="cls-1" d="M1510.79,156.85H1525v3.66h-9.9v4.35h9.69v3.66h-9.69v4.65h9.9v3.69h-14.16Z"/><path class="cls-1" d="M1528.28,156.85h4.26v16.26H1541v3.75h-12.72Z"/><path class="cls-1" d="M1544,156.85h14.16v3.66h-9.9v4.35h9.69v3.66h-9.69v4.65h9.9v3.69H1544Z"/><path class="cls-1" d="M1560.5,166.87a10.13,10.13,0,0,1,10.5-10.35,9.23,9.23,0,0,1,8.52,4.89l-3.66,1.8a5.48,5.48,0,0,0-4.86-2.91c-3.48,0-6.12,2.79-6.12,6.57s2.64,6.57,6.12,6.57a5.42,5.42,0,0,0,4.86-2.91l3.66,1.77a9.29,9.29,0,0,1-8.52,4.92A10.13,10.13,0,0,1,1560.5,166.87Z"/><path class="cls-1" d="M1586.69,160.6h-5.85v-3.75h16v3.75H1591v16.26h-4.29Z"/><path class="cls-1" d="M1606.91,169.69h-3.12v7.17h-4.26v-20h9.36c4.17,0,6.72,2.73,6.72,6.45a5.74,5.74,0,0,1-4.38,5.94l4.5,7.62h-4.89Zm1.35-9.18h-4.47V166h4.47a2.77,2.77,0,1,0,0-5.52Z"/><path class="cls-1" d="M1618.82,156.85h4.26v20h-4.26Z"/><path class="cls-1" d="M1626.08,166.87a10.13,10.13,0,0,1,10.5-10.35,9.23,9.23,0,0,1,8.52,4.89l-3.66,1.8a5.48,5.48,0,0,0-4.86-2.91c-3.48,0-6.12,2.79-6.12,6.57s2.64,6.57,6.12,6.57a5.42,5.42,0,0,0,4.86-2.91l3.66,1.77a9.29,9.29,0,0,1-8.52,4.92A10.13,10.13,0,0,1,1626.08,166.87Z"/><path class="cls-1" d="M1647.65,156.85h4.26v20h-4.26Z"/><path class="cls-1" d="M1660.49,160.6h-5.85v-3.75h16v3.75h-5.82v16.26h-4.29Z"/><path class="cls-1" d="M1678.91,168.67l-7.71-11.82h4.86l5,8,4.92-8h4.86l-7.65,11.82v8.19h-4.26Z"/><path class="cls-1" d="M341.49.33h14.16V4h-9.9V8.34h9.69V12h-9.69v4.65h9.9v3.69H341.49Z"/><path class="cls-1" d="M359,.33h4.26V16.59h8.46v3.75H359Z"/><path class="cls-1" d="M374.67.33h14.16V4h-9.9V8.34h9.69V12h-9.69v4.65h9.9v3.69H374.67Z"/><path class="cls-1" d="M391.2,10.35A10.13,10.13,0,0,1,401.7,0a9.23,9.23,0,0,1,8.52,4.89l-3.66,1.8a5.48,5.48,0,0,0-4.86-2.91c-3.48,0-6.12,2.79-6.12,6.57s2.64,6.57,6.12,6.57A5.42,5.42,0,0,0,406.56,14l3.66,1.77a9.29,9.29,0,0,1-8.52,4.92A10.13,10.13,0,0,1,391.2,10.35Z"/><path class="cls-1" d="M417.39,4.08h-5.85V.33h16V4.08h-5.82V20.34h-4.29Z"/><path class="cls-1" d="M437.61,13.17h-3.12v7.17h-4.26V.33h9.36c4.17,0,6.72,2.73,6.72,6.45a5.74,5.74,0,0,1-4.38,5.94l4.5,7.62h-4.89ZM439,4h-4.47V9.51H439A2.77,2.77,0,1,0,439,4Z"/><path class="cls-1" d="M449.52.33h4.26v20h-4.26Z"/><path class="cls-1" d="M456.78,10.35A10.13,10.13,0,0,1,467.28,0a9.23,9.23,0,0,1,8.52,4.89l-3.66,1.8a5.48,5.48,0,0,0-4.86-2.91c-3.48,0-6.12,2.79-6.12,6.57s2.64,6.57,6.12,6.57A5.42,5.42,0,0,0,472.14,14l3.66,1.77a9.29,9.29,0,0,1-8.52,4.92A10.13,10.13,0,0,1,456.78,10.35Z"/><path class="cls-1" d="M478.35.33h4.26v20h-4.26Z"/><path class="cls-1" d="M491.19,4.08h-5.85V.33h16V4.08h-5.82V20.34h-4.29Z"/><path class="cls-1" d="M509.61,12.15,501.9.33h4.86l5,8,4.92-8h4.86l-7.65,11.82v8.19h-4.26Z"/></g></g></svg>