<svg xmlns="http://www.w3.org/2000/svg" viewBox="0 0 1063.81 448.2"><defs><style>.cls-1,.cls-8{fill:#fff;}.cls-10,.cls-11,.cls-12,.cls-2,.cls-3,.cls-4,.cls-5,.cls-9{fill:none;stroke:#fff;}.cls-2{stroke-miterlimit:10;stroke-width:1.98px;}.cls-10,.cls-11,.cls-12,.cls-3,.cls-4,.cls-5,.cls-9{stroke-linecap:round;stroke-linejoin:round;stroke-width:3.96px;}.cls-4{stroke-dasharray:0.1 7.82;}.cls-5{stroke-dasharray:0.09 7.54;}.cls-13,.cls-6{font-size:39.9px;fill:#263152;}.cls-13,.cls-6,.cls-8{font-family:BebasNeue-Bold, Bebas Neue;font-weight:700;}.cls-6{letter-spacing:0.02em;}.cls-7{fill:#6ec4a4;}.cls-8{font-size:37.6px;letter-spacing:0.03em;}.cls-9{stroke-dasharray:0.1 7.82;}.cls-10{stroke-dasharray:0.1 7.82;}.cls-11{stroke-dasharray:0.1 7.98;}.cls-12{stroke-dasharray:0.1 7.98;}.cls-13{letter-spacing:0.03em;}</style></defs><g id="Layer_2" data-name="Layer 2"><g id="Layer_1-2" data-name="Layer 1"><g id="Central"><circle class="cls-1" cx="523.57" cy="224.42" r="134.21" transform="translate(-5.34 435.95) rotate(-45)"/><path class="cls-1" d="M523.57,74.23A150.19,150.19,0,1,0,673.76,224.42,150.19,150.19,0,0,0,523.57,74.23Zm0,290.86A140.67,140.67,0,1,1,664.23,224.42,140.67,140.67,0,0,1,523.57,365.09Z"/><circle class="cls-2" cx="523.57" cy="224.42" r="168.6" transform="translate(-5.34 435.95) rotate(-45)"/></g><g id="Industrial"><circle class="cls-1" cx="404.35" cy="343.64" r="7.69"/><path class="cls-2" d="M395.82,335.11a12.07,12.07,0,1,1,0,17.07A12,12,0,0,1,395.82,335.11Z"/><line class="cls-3" x1="404.35" y1="343.64" x2="404.32" y2="343.68"/><line class="cls-4" x1="398.78" y1="349.21" x2="328.76" y2="419.24"/><polyline class="cls-3" points="325.99 422 325.95 422.04 325.9 422.04"/><line class="cls-5" x1="318.36" y1="422.04" x2="268.68" y2="422.04"/><line class="cls-3" x1="264.91" y1="422.04" x2="264.86" y2="422.04"/><path class="cls-1" d="M241.87,401.34H103.67a30.87,30.87,0,0,1,0,41.4h179.6v-41.4Z"/><text class="cls-6" transform="translate(122.36 435.85)">INDUSTRIAL</text><circle class="cls-7" cx="77.5" cy="422.04" r="26.17"/><text class="cls-8" transform="translate(62.17 435.85)">03</text></g><g id="Smart_Water" data-name="Smart Water"><circle class="cls-1" cx="642.78" cy="343.64" r="7.69"/><path class="cls-2" d="M634.25,352.18a12.07,12.07,0,1,1,17.07,0A12.08,12.08,0,0,1,634.25,352.18Z"/><line class="cls-3" x1="642.77" y1="343.64" x2="642.8" y2="343.68"/><line class="cls-4" x1="648.33" y1="349.21" x2="718.36" y2="419.24"/><polyline class="cls-3" points="721.13 422 721.16 422.04 721.21 422.04"/><line class="cls-5" x1="728.76" y1="422.04" x2="778.44" y2="422.04"/><line class="cls-3" x1="782.21" y1="422.04" x2="782.26" y2="422.04"/><path class="cls-1" d="M965.1,401.34H826.9a30.87,30.87,0,0,1,0,41.4h228.34v-41.4Z"/><text class="cls-6" transform="translate(850.49 435.85)">SMART WATER</text><circle class="cls-7" cx="802.6" cy="422.04" r="26.17"/><text class="cls-8" transform="translate(787.27 435.85)">06</text></g><g id="Thermal"><circle class="cls-1" cx="642.78" cy="105.21" r="7.69"/><path class="cls-2" d="M634.25,96.67a12.07,12.07,0,1,1,0,17.07A12.08,12.08,0,0,1,634.25,96.67Z"/><line class="cls-3" x1="643.05" y1="105.21" x2="643.08" y2="105.17"/><line class="cls-9" x1="648.61" y1="99.64" x2="718.64" y2="29.61"/><polyline class="cls-3" points="721.41 26.85 721.44 26.81 721.49 26.81"/><line class="cls-5" x1="729.04" y1="26.81" x2="778.72" y2="26.81"/><line class="cls-3" x1="782.49" y1="26.81" x2="782.54" y2="26.81"/><path class="cls-1" d="M830.48,5.47a30.87,30.87,0,0,1,0,41.4h138.2V5.47Z"/><text class="cls-6" transform="translate(842.64 39.98)">THERMAL</text><circle class="cls-7" cx="806.19" cy="26.17" r="26.17"/><text class="cls-8" transform="translate(790.86 39.98)">04</text></g><g id="House"><circle class="cls-1" cx="404.35" cy="105.21" r="7.69"/><path class="cls-2" d="M395.82,113.74a12.07,12.07,0,1,1,17.06,0A12.06,12.06,0,0,1,395.82,113.74Z"/><line class="cls-3" x1="404.63" y1="105.21" x2="404.59" y2="105.17"/><line class="cls-10" x1="399.06" y1="99.64" x2="329.03" y2="29.61"/><polyline class="cls-3" points="326.27 26.85 326.24 26.81 326.19 26.81"/><line class="cls-5" x1="318.64" y1="26.81" x2="268.96" y2="26.81"/><line class="cls-3" x1="265.19" y1="26.81" x2="265.14" y2="26.81"/><path class="cls-1" d="M132.76,6.13a30.87,30.87,0,0,1,0,41.4H271V6.13Z"/><text class="cls-6" transform="translate(181.9 40.64)">HOUSE</text><circle class="cls-7" cx="108.47" cy="26.83" r="26.17" transform="translate(46.32 119.69) rotate(-70.1)"/><text class="cls-8" transform="translate(93.14 40.64)">01</text></g><g id="Combination"><path class="cls-1" d="M692.17,232.11a7.69,7.69,0,1,1,7.68-7.69A7.69,7.69,0,0,1,692.17,232.11Z"/><circle class="cls-2" cx="692.17" cy="224.42" r="12.07" transform="translate(44.04 555.17) rotate(-45)"/><line class="cls-3" x1="692.17" y1="224.42" x2="692.22" y2="224.42"/><line class="cls-11" x1="700.19" y1="224.42" x2="825.45" y2="224.42"/><line class="cls-3" x1="829.44" y1="224.42" x2="829.49" y2="224.42"/><path class="cls-1" d="M1000.76,202.76H862.55a30.87,30.87,0,0,1,0,41.4h201.26v-41.4Z"/><text class="cls-6" transform="translate(880.81 237.27)">COMBINATION</text><circle class="cls-7" cx="837.15" cy="223.46" r="26.17"/><text class="cls-8" transform="translate(821.82 237.27)">05</text></g><g id="Apartment"><path class="cls-1" d="M355,232.11a7.69,7.69,0,1,1,7.68-7.69A7.69,7.69,0,0,1,355,232.11Z"/><circle class="cls-2" cx="354.97" cy="224.42" r="12.07"/><line class="cls-3" x1="217.65" y1="224.42" x2="217.7" y2="224.42"/><line class="cls-12" x1="225.68" y1="224.42" x2="350.93" y2="224.42"/><line class="cls-3" x1="354.92" y1="224.42" x2="354.97" y2="224.42"/><path class="cls-1" d="M189.54,204.15H51.34a30.9,30.9,0,0,1,0,41.4h179.6v-41.4Z"/><text class="cls-13" transform="translate(72.63 238.66)">APARTMENT</text><circle class="cls-7" cx="26.17" cy="224.85" r="26.17"/><text class="cls-8" transform="translate(10.84 238.66)">02</text></g></g></g></svg>