<svg xmlns="http://www.w3.org/2000/svg" viewBox="0 0 48.31 46"><defs><style>.cls-1,.cls-2{fill:none;stroke:#fff;stroke-miterlimit:10;}.cls-1{stroke-width:0.25px;stroke-dasharray:1;}.cls-3{fill:#00a859;}</style></defs><g id="Layer_2" data-name="Layer 2"><g id="Layer_1-2" data-name="Layer 1"><circle class="cls-1" cx="19.73" cy="26.27" r="17.31"/><circle class="cls-2" cx="19.73" cy="26.27" r="19.23"/><circle class="cls-3" cx="19.73" cy="26.27" r="4.62"/><circle class="cls-2" cx="19.73" cy="26.27" r="19.23"/><circle class="cls-3" cx="19.73" cy="26.27" r="4.62"/><path class="cls-1" d="M46.46,14a12.12,12.12,0,0,1-7.53,11.22,19.16,19.16,0,0,0-2.62-8.66,19.26,19.26,0,0,0-12.23-9A12.11,12.11,0,0,1,46.46,14Z"/><path class="cls-2" d="M47.81,14A13.49,13.49,0,0,1,39,26.62c0-.12,0-.24,0-.35,0-.37,0-.73,0-1.09a19.16,19.16,0,0,0-2.62-8.66,19.26,19.26,0,0,0-12.23-9c-.46-.12-.93-.2-1.4-.28A13.46,13.46,0,0,1,47.81,14Z"/><path class="cls-3" d="M37.58,14a3.2,3.2,0,0,1-1.27,2.56,18.94,18.94,0,0,0-4.16-4.93A3.23,3.23,0,0,1,37.58,14Z"/><path class="cls-2" d="M47.81,14A13.49,13.49,0,0,1,39,26.62c0-.12,0-.24,0-.35,0-.37,0-.73,0-1.09a19.16,19.16,0,0,0-2.62-8.66,19.26,19.26,0,0,0-12.23-9c-.46-.12-.93-.2-1.4-.28A13.46,13.46,0,0,1,47.81,14Z"/></g></g></svg>