<svg xmlns="http://www.w3.org/2000/svg" viewBox="0 0 50.27 47.92"><defs><style>.cls-1,.cls-3{fill:none;stroke:#fff;stroke-miterlimit:10;}.cls-1{stroke-dasharray:1;}.cls-2{fill:#00a859;}.cls-3{stroke-width:2px;}</style></defs><g id="Layer_2" data-name="Layer 2"><g id="Layer_1-2" data-name="Layer 1"><circle class="cls-1" cx="20.71" cy="27.23" r="15.71"/><circle class="cls-2" cx="20.71" cy="27.23" r="4.62"/><circle class="cls-2" cx="20.71" cy="27.23" r="4.62"/><path class="cls-1" d="M46.05,14.86a10.61,10.61,0,0,1-6.59,9.82,16.84,16.84,0,0,0-13-15.44,10.6,10.6,0,0,1,19.59,5.62Z"/><path class="cls-2" d="M39.65,14.66a3.2,3.2,0,0,1-1.27,2.56,18.91,18.91,0,0,0-4.15-4.93,3.23,3.23,0,0,1,5.42,2.37Z"/><circle class="cls-3" cx="20.62" cy="27.3" r="19.62"/><path class="cls-3" d="M49.27,14.74a13.75,13.75,0,0,1-9,12.91c0-.12,0-.24,0-.35,0-.38,0-.75,0-1.12a19.65,19.65,0,0,0-15.16-18c-.47-.12-.95-.2-1.43-.28a13.73,13.73,0,0,1,25.64,6.84Z"/></g></g></svg>