<svg xmlns="http://www.w3.org/2000/svg" viewBox="0 0 45.07 50.45"><defs><style>.cls-1{fill:#00a859;}.cls-10,.cls-11,.cls-2,.cls-3,.cls-4,.cls-5,.cls-6,.cls-7,.cls-8,.cls-9{fill:none;stroke:#f2f2f2;stroke-miterlimit:10;}.cls-3{stroke-dasharray:0.99 0.99;}.cls-4{stroke-dasharray:1.03 1.03;}.cls-5{stroke-dasharray:1.01 1.01;}.cls-6{stroke-dasharray:0.98 0.98;}.cls-7{stroke-dasharray:0.99 0.99;}.cls-8{stroke-dasharray:1.04 1.04;}.cls-9{stroke-dasharray:0.95 0.95;}.cls-10{stroke-dasharray:0.98 0.98;}.cls-11{stroke-width:2px;}</style></defs><g id="Layer_2" data-name="Layer 2"><g id="Layer_1-2" data-name="Layer 1"><circle class="cls-1" cx="8" cy="23.37" r="8"/><polyline class="cls-2" points="8.15 1 8.15 0.5 8.65 0.5"/><line class="cls-3" x1="9.65" y1="0.5" x2="39" y2="0.5"/><polyline class="cls-2" points="39.5 0.5 40 0.5 40 1"/><line class="cls-4" x1="40" y1="2.03" x2="40" y2="7.71"/><polyline class="cls-2" points="40 8.23 40 8.73 39.5 8.73"/><line class="cls-5" x1="38.48" y1="8.73" x2="18.74" y2="8.73"/><polyline class="cls-2" points="18.23 8.73 17.73 8.73 17.73 9.23"/><line class="cls-6" x1="17.73" y1="10.21" x2="17.73" y2="17.53"/><polyline class="cls-2" points="17.73 18.01 17.73 18.51 18.23 18.51"/><line class="cls-7" x1="19.22" y1="18.51" x2="38.53" y2="18.51"/><polyline class="cls-2" points="39.02 18.51 39.52 18.51 39.52 19.01"/><line class="cls-4" x1="39.52" y1="20.05" x2="39.52" y2="25.73"/><polyline class="cls-2" points="39.52 26.25 39.52 26.75 39.02 26.75"/><line class="cls-7" x1="38.03" y1="26.75" x2="18.73" y2="26.75"/><polyline class="cls-2" points="18.23 26.75 17.73 26.75 17.73 27.25"/><line class="cls-8" x1="17.73" y1="28.29" x2="17.73" y2="44.48"/><polyline class="cls-2" points="17.73 45 17.73 45.5 17.23 45.5"/><line class="cls-9" x1="16.28" y1="45.5" x2="9.13" y2="45.5"/><polyline class="cls-2" points="8.65 45.5 8.15 45.5 8.15 45"/><line class="cls-10" x1="8.15" y1="44.02" x2="8.15" y2="1.49"/><path class="cls-11" d="M12.23,4.45H44.07v8.23H21.81v9.78H43.6v8.23H21.81V49.45H12.23Z"/></g></g></svg>