<svg xmlns="http://www.w3.org/2000/svg" viewBox="0 0 55.19 52.05"><defs><style>.cls-1{fill:#00a859;}.cls-2{fill:#fff;}</style></defs><g id="Layer_2" data-name="Layer 2"><g id="Layer_1-2" data-name="Layer 1"><circle class="cls-1" cx="27.6" cy="33.12" r="17.22"/><g id="surface1"><path class="cls-2" d="M28.1,24.42a9.2,9.2,0,1,0,9.2,9.2,9.2,9.2,0,0,0-9.2-9.2ZM28.1,41a7.36,7.36,0,1,1,7.36-7.36A7.36,7.36,0,0,1,28.1,41Z" transform="translate(-0.5 -0.5)"/><path class="cls-2" d="M28.1,20.74a.92.92,0,0,0-.92.92v.92a.92.92,0,1,0,1.84,0v-.92a.92.92,0,0,0-.92-.92Z" transform="translate(-0.5 -0.5)"/><path class="cls-2" d="M36.54,24.25a.93.93,0,0,0-.64.26l-.65.65a.93.93,0,0,0,0,1.3.9.9,0,0,0,.66.28.89.89,0,0,0,.64-.26l0,0,.65-.65a.91.91,0,0,0,0-1.3.93.93,0,0,0-.64-.26Z" transform="translate(-0.5 -0.5)"/><path class="cls-2" d="M40.06,32.7h-.92a.92.92,0,1,0,0,1.84h.92a.92.92,0,0,0,0-1.84Z" transform="translate(-0.5 -0.5)"/><path class="cls-2" d="M35.91,40.51a.94.94,0,0,0-.66.28.93.93,0,0,0,0,1.28l.65.65a.92.92,0,0,0,.65.27.91.91,0,0,0,.65-.27.92.92,0,0,0,0-1.3l-.65-.65a.93.93,0,0,0-.64-.26Z" transform="translate(-0.5 -0.5)"/><path class="cls-2" d="M28.1,43.73a.92.92,0,0,0-.92.92v.92a.92.92,0,1,0,1.84,0v-.92a.93.93,0,0,0-.92-.92Z" transform="translate(-0.5 -0.5)"/><path class="cls-2" d="M20.28,40.51a.93.93,0,0,0-.64.26h0l-.65.65A.92.92,0,0,0,19.64,43a.91.91,0,0,0,.65-.27l.65-.65a.92.92,0,0,0-.66-1.56Z" transform="translate(-0.5 -0.5)"/><path class="cls-2" d="M17.06,32.7h-.92a.92.92,0,1,0,0,1.84h.92a.92.92,0,1,0,0-1.84Z" transform="translate(-0.5 -0.5)"/><path class="cls-2" d="M19.64,24.24A.92.92,0,0,0,19,25.81l.65.65a.93.93,0,0,0,.64.26.9.9,0,0,0,.66-.28.91.91,0,0,0,0-1.28l-.65-.65a.91.91,0,0,0-.65-.27Z" transform="translate(-0.5 -0.5)"/><path class="cls-2" d="M42.81.5H13.38a2.76,2.76,0,0,0,0,5.52h11v5.52H22.58a.92.92,0,0,0-.92.92v6.92a15.68,15.68,0,0,0-7.8,7.8H6v-.92a2.76,2.76,0,0,0-5.52,0V41A2.76,2.76,0,0,0,6,41v-.92h7.84a15.61,15.61,0,0,0,28.47,0h7.84V41a2.76,2.76,0,0,0,5.52,0V26.26a2.76,2.76,0,0,0-5.52,0v.92H42.33a15.7,15.7,0,0,0-7.79-7.8V12.46a.92.92,0,0,0-.92-.92H31.78V6h11a2.76,2.76,0,0,0,0-5.52ZM13.38,4.18a.92.92,0,0,1,0-1.84H42.81a.92.92,0,1,1,0,1.84Zm12.88,7.36V6h3.68v5.52ZM23.5,18.67V13.38h9.2v5.29a15.68,15.68,0,0,0-9.2,0Zm4.6,28.74A13.8,13.8,0,1,1,41.9,33.62,13.79,13.79,0,0,1,28.1,47.41ZM52.93,41.9A.93.93,0,0,1,52,41V26.26a.92.92,0,1,1,1.84,0V41a.92.92,0,0,1-.92.92Zm-49.67,0A.92.92,0,0,1,2.34,41V26.26a.92.92,0,1,1,1.84,0V41a.92.92,0,0,1-.92.92ZM43,38.22A15.52,15.52,0,0,0,43,29h7.13v9.2Zm-37,0V29h7.13a15.68,15.68,0,0,0,0,9.2Z" transform="translate(-0.5 -0.5)"/></g><path class="cls-2" d="M28.1,14.68h-.22c-.26,0-.52,0-.78,0l0,1c.31,0,.63,0,1,0v-1Zm-1.06,0H27l.05,1h.06l-.06-1ZM26,14.8h0l.11,1h.05l-.11-1Zm-.11,0h0l-.95.14.17,1L26,15.8l-.12-1Zm-1,.15h-.06L25,16H25l-.17-1Zm-1,.21h-.05l.23,1H24l-.23-1Zm-.1,0-.2,0h-.06l-.61.16h-.1l.28,1c.31-.09.61-.17.92-.24l-.23-1Zm-1,.27h-.05l.28,1H23l-.28-1Zm-1,.33h-.06l.35.94,0,0-.33-.94Zm-.11,0-.75.29h0l-.16.07.4.91c.29-.12.58-.24.88-.34l-.35-.94Zm-1,.39-.05,0,.4.92,0,0-.4-.92Zm-.95.44-.05,0,.45.89,0,0-.44-.9Zm-.1,0-.13.07h0l-.72.4.5.86.83-.45-.45-.89Zm-.93.51-.05,0,.51.87,0,0-.5-.86Zm-.9.55h0l0,0h0l.55.83,0,0-.55-.84Zm-.09.06-.47.33h0l0,0H17v0h0l0,0h0l-.06,0,.6.8c.25-.19.51-.37.78-.55l-.56-.83Zm-.86.61h0l0,0h0l.6.8,0,0-.6-.8Zm-.83.65,0,0,0,0,.65.76,0,0-.65-.77Zm-.08.08-.07.06h-.21l-.16.14h0l0,0H15.2l-.1.08.69.73c.23-.22.47-.43.71-.63l-.65-.76Zm-.79.7,0,0,.69.72,0,0-.69-.73Zm-.74.75h0l0,0,.73.68,0,0-.73-.68Zm-.08.08h0l-.49.54h0l-.12.15.77.64c.2-.24.41-.48.63-.71l-.74-.68Zm-.69.79h0l0,0h0l.77.64,0,0-.77-.64Zm-.66.83,0,0v0l.81.6,0,0-.81-.59Zm-.06.09c-.2.26-.39.54-.57.82l.83.55q.27-.41.54-.78l-.8-.59Zm-.6.86v0l0,0,.84.54,0,0-.84-.55Zm-.55.9,0,.05.87.5,0-.05-.86-.5Zm-.06.1c-.16.29-.32.58-.47.88l.9.45c.14-.29.29-.56.44-.84l-.87-.49Zm-.49.93h0l0,0,.9.44,0-.05-.89-.44Zm-.45,1h0v0h0l.92.39,0-.05-.92-.39Zm0,.1c-.13.3-.25.62-.36.93l.94.34c.11-.3.22-.59.34-.88l-.92-.39Zm-.38,1h0v0h0l.94.34,0-.05-.94-.34Zm-.33,1v.06l1,.28v-.05l-1-.29Zm0,.11c-.09.32-.17.64-.25,1l1,.22.24-.91-1-.28Zm-.26,1v0h0v0l1,.22V29.6l-1-.22Zm-.21,1v0l1,.17v-.06l-1-.16Zm0,.1,0,.21h0c0,.26-.07.52-.1.78l1,.1c0-.31.08-.62.13-.93l-1-.17Zm-.14,1.05v0h0l1,.11v-.05l-1-.11Zm-.08,1v.06l1,0v-.06l-1-.05Zm0,.11a2.44,2.44,0,0,1,0,.27h0v0h0v0h0v0h0v0h0v0h0v0h0v0h0v.11h1v-.11c0-.29,0-.56,0-.84l-1-.05Zm1,1.05h-1v.05h1v0Zm0,1-1,.06v.06l1-.07v0Zm0,.1-1,.07a.62.62,0,0,0,0,.13h0c0,.21,0,.41.07.62h0c0,.05,0,.1,0,.16l1-.13c0-.31-.07-.62-.09-.94Zm.09,1-1,.12v0l1-.12v0Zm.16,1-1,.18v0h0v0l1-.19v0Zm0,.11-1,.18c0,.18.07.35.11.53h0l.09.39,1-.24c-.07-.3-.14-.61-.2-.92Zm.22,1-1,.24h0v0l1-.24v-.05Zm.26,1-.95.3v0l1-.3,0-.05Zm0,.1-1,.3h0c.06.17.11.33.16.49h0v0h0v0h0c0,.12.08.23.13.35l.93-.35q-.16-.45-.3-.9Zm.32,1-.93.35v0h0l.93-.35,0,0Zm.38.92-.91.41v0h0l.91-.41,0-.05Zm0,.1-.91.41.11.23h0l.27.54h0l0,.05.88-.46c-.14-.28-.28-.57-.41-.85Zm.44.9-.89.46,0,0,.88-.46,0,0Zm.48.87-.86.51v0h0l0,0,.86-.52,0,0Zm.06.09-.86.51.05.08h0l.29.46h0l.17.25.82-.56c-.17-.26-.34-.53-.5-.8Zm.53.84-.82.56,0,.05h0l.82-.57,0,0Zm.59.81-.8.61,0,0,0,0,.79-.61,0,0Zm.06.08-.79.62.42.52h0v0h.12l0,0h0l0,0,.76-.65c-.21-.24-.41-.49-.6-.74Zm.63.78-.75.65h0l.76-.65,0,0Zm.68.74-.72.69h0v0h0l0,0,.71-.7,0,0Zm.07.07-.71.7.18.18h.16l.37.36.68-.74c-.23-.21-.46-.43-.68-.66Zm.72.7-.68.73h0l0,0h0l.68-.74,0,0Zm.75.65-.63.77,0,0h0l.63-.78,0,0Zm.09.07-.63.77.22.18h.13l0,0h.1l0,0h.11l0,0h0L17,49l.59-.81c-.26-.18-.51-.38-.75-.57Zm.79.6L17,49l0,0,.58-.82,0,0Zm.83.56-.54.85h0l.54-.85,0,0Zm.08.06-.53.85.38.23h.09l.39.23.49-.87-.82-.49Zm.86.51-.48.87h0l0,0,.49-.87-.05,0Zm.89.46-.44.9.05,0h0l.44-.91,0,0Zm.09.05-.43.9.68.31h0l.19.09.39-.93-.87-.38Zm.92.4-.38.93.05,0,.37-.93,0,0Zm.93.36-.33.94.05,0,.33-1Zm.1,0-.32.95.44.14h.14l.28.09H23l.27-1-.9-.28Zm.95.29-.27,1h.06l.26-1-.05,0Zm1,.25-.21,1h0l.21-1Zm.1,0-.2,1c.32.06.65.13,1,.18l.15-1-.93-.17Zm1,.18-.16,1h.06l.15-1Zm1,.12-.1,1h.05l.1-1Zm.1,0-.09,1,.67.05h.33l0-1-.95-.07Zm1,.07,0,1h.06l0-1Zm1,0h0l0,1h0l0-1Zm1,0-.95,0,0,1h.06c.27,0,.53,0,.8,0h.14l-.08-1Zm.1,0h-.05l.08,1h.06l-.09-1Zm1-.11h-.05l.13,1h.05l-.13-1Zm1-.16q-.47.09-.93.15l.14,1h.06l.74-.13h.05l.13,0-.19-1Zm.1,0h0l.2,1h.05l-.2-1Zm1-.23-.05,0,.25,1h.05l-.25-1Zm1-.28c-.3.1-.61.19-.91.27l.25,1,.6-.17h.13l.16,0h.07l-.3-1Zm.1,0,0,0,.31,1h0l-.31-1Zm.94-.34-.05,0,.36.94,0,0h0l-.36-.94Zm.92-.38-.88.37.37.93.92-.4-.41-.9Zm.09,0,0,0,.42.91h.05l-.42-.91Zm.89-.44,0,0,.47.88h0l-.48-.88Zm.87-.5c-.27.16-.54.32-.82.47l.47.88c.17-.09.34-.18.5-.28h0l.34-.21L37.4,49Zm.09-.05,0,0,.52.86,0,0h0l-.53-.85Zm.84-.55,0,0,.57.82,0,0-.57-.82Zm.8-.6c-.25.2-.5.39-.76.57l.57.82.06,0h0l.23-.16h0l0,0h0l.42-.32-.62-.79Zm.08-.06,0,0,.62.79,0,0-.62-.78Zm.77-.64,0,0,.66.75h0l0,0h0L40,47.05Zm.73-.68L40,47l.66.75h0l.29-.27h0l0,0h.17l0,0h0l.18-.17-.7-.71Zm.07-.08,0,0,.7.71h0l0,0-.71-.71Zm.69-.72,0,0,.75.67h0l0,0-.74-.66Zm.65-.77c-.2.25-.41.49-.62.73l.75.66h.06c.17-.19.34-.38.5-.58h0l0,0-.78-.63Zm.06-.08,0,0,.78.62h0l0,0-.78-.62Zm.6-.8,0,0,.81.58,0,0h0l-.82-.58Zm.55-.83c-.17.27-.34.53-.52.79l.82.57c.19-.27.37-.55.55-.83l-.85-.53Zm.05-.09,0,0,.85.53v0h0L43.38,43Zm.5-.87,0,0,.88.48,0,0h0l-.88-.48Zm.45-.89c-.13.29-.27.57-.42.85l.88.47c.16-.29.31-.59.45-.89l-.91-.43Zm.05-.09,0,0,.9.43h0l0,0-.91-.42Zm.39-.92,0,.05.93.37h0v0l-.93-.37Zm.34-.94c-.1.3-.2.6-.32.89l.93.37c.12-.31.24-.63.34-.94l-1-.32Zm0-.1,0,.05.95.32V39.5l-1-.31Zm.28-1v.06l1,.25h0v0h0l-1-.26Zm.23-1c-.06.31-.14.62-.22.92l1,.26.06-.25h0c0-.21.1-.42.14-.64h0l-1-.21Zm0-.1v.05l1,.2v0h0l-1-.2Zm.17-1v0l1,.14v0l-1-.14Zm.11-1c0,.32-.06.63-.1.94l1,.14.06-.45h0c0-.17,0-.34.05-.51l-1-.09Zm0-.1v.05l1,.08h0v0l-1-.08Zm.06-1v.05l1,0h0v0h0l-1,0Zm1-1-1,0c0,.18,0,.36,0,.54V34l1,0v-.17h0v0h0v0h0v0h0v0h0c0-.12,0-.24,0-.36Zm0-.11-1,0V33l1,0v-.06Zm-.07-1L46,32V32l1-.09v-.05Zm-.12-1.05-1,.15c0,.31.08.62.11.94l1-.1c0-.23-.05-.45-.08-.68h0v0h0v0Zm0-.11-1,.15v.05l1-.14v-.05Zm-.19-1-1,.21V30l1-.2,0-.06Zm-.24-1-1,.26c.08.3.16.61.22.92l1-.21-.06-.29h0v0h0c0-.19-.09-.38-.14-.57Zm0-.11-1,.27v.05l1-.26v-.06Zm-.31-1-.95.32,0,.05,1-.31,0-.06Zm-.37-1-.92.38.33.88L46,27.5c0-.11-.07-.22-.11-.32h0l0-.06h0v0h0c-.05-.14-.11-.28-.17-.43Zm0-.1-.92.38,0,.05.92-.38,0-.05Zm-.42-1-.91.43,0,0,.9-.42,0-.05Zm-.48-.94-.88.48c.15.27.29.55.43.84l.9-.43c-.14-.3-.29-.6-.45-.89Zm-.06-.1L43.8,25l0,0,.88-.48,0-.05Zm-.53-.91-.85.54,0,0,.85-.53,0-.05Zm-.59-.87-.81.57c.18.26.35.52.52.79l.85-.53-.18-.28h0l-.36-.51Zm-.06-.09-.81.58,0,0,.81-.58,0,0Zm-.64-.84-.78.62,0,0,.78-.62,0,0v0Zm-.68-.81-.75.67.62.72.77-.63-.18-.22h-.1l0,0h0c-.1-.13-.21-.25-.32-.38Zm-.08-.08-.74.68,0,0,.74-.67,0,0,0,0Zm-.73-.76-.7.72,0,0,.7-.71,0,0Zm-.77-.71-.66.75c.23.2.47.42.69.64l.7-.72-.27-.25h0v0H41l-.36-.33Zm-.09-.08-.65.76,0,0,.65-.75,0,0Zm-.81-.67-.61.79,0,0,.61-.79,0,0h0ZM38.84,18l-.57.82c.26.18.51.37.76.56l.61-.79-.8-.59ZM38.75,18l-.57.82,0,0,.56-.82h0Zm-.89-.57-.52.86,0,0,.52-.85,0,0Zm-.92-.52-.47.88.83.47.51-.86h0l-.72-.4h0l-.08,0Zm-.1-.05-.46.89,0,0,.46-.89h0l0,0Zm-1-.46-.41.91.05,0,.41-.91h0l0,0Zm-1-.41-.36.93c.3.12.59.24.87.37l.41-.92-.19-.08h0L34.92,16Zm-.1,0-.36.93,0,0,.36-.93h0Zm-1-.35-.3,1h0l.3-1h0Zm-1-.29-.25,1,.91.26.3-.95-.69-.21H33l-.19-.05Zm-.11,0-.24,1h0l.24-1h0Zm-1-.23-.19,1h.05l.19-1h0Zm-1-.17-.13,1,.93.15.19-1c-.33-.06-.66-.12-1-.16Zm-.11,0-.13,1h.06l.13-1h-.06Zm-1.05-.11-.07,1h.05l.08-1h-.06Zm-1-.05,0,1c.32,0,.63,0,1,.05l.07-1-.24,0h-.09l-.67,0Zm-.11,0v1h.05v-1h-.05Z" transform="translate(-0.5 -0.5)"/></g></g></svg>