<svg xmlns="http://www.w3.org/2000/svg" xmlns:xlink="http://www.w3.org/1999/xlink" viewBox="0 0 571 404.61"><defs><style>.cls-1{mask:url(#mask);filter:url(#luminosity-noclip-8);}.cls-10,.cls-12,.cls-14,.cls-19,.cls-2,.cls-4,.cls-6,.cls-8{mix-blend-mode:multiply;}.cls-2{fill:url(#Áåçûìÿííûé_ãðàäèåíò_37);}.cls-3{mask:url(#mask-2);filter:url(#luminosity-noclip-13);}.cls-4{fill:url(#Áåçûìÿííûé_ãðàäèåíò_37-2);}.cls-5{mask:url(#mask-3);filter:url(#luminosity-noclip-14);}.cls-6{fill:url(#Áåçûìÿííûé_ãðàäèåíò_37-3);}.cls-7{mask:url(#mask-4);filter:url(#luminosity-noclip-9);}.cls-8{fill:url(#Áåçûìÿííûé_ãðàäèåíò_37-4);}.cls-9{mask:url(#mask-5);filter:url(#luminosity-noclip-10);}.cls-10{fill:url(#Áåçûìÿííûé_ãðàäèåíò_37-5);}.cls-11{mask:url(#mask-6);filter:url(#luminosity-noclip-11);}.cls-12{fill:url(#Áåçûìÿííûé_ãðàäèåíò_37-6);}.cls-13{mask:url(#mask-7);filter:url(#luminosity-noclip-12);}.cls-14{fill:url(#Áåçûìÿííûé_ãðàäèåíò_37-7);}.cls-15{isolation:isolate;}.cls-16{fill:url(#Áåçûìÿííûé_ãðàäèåíò_63);}.cls-17,.cls-20,.cls-33{mix-blend-mode:overlay;}.cls-18,.cls-33{fill:#fff;}.cls-19{fill:#21637d;opacity:0.25;}.cls-20{fill:#fff7cc;opacity:0.6;}.cls-21{mask:url(#mask-8);}.cls-22,.cls-25,.cls-28,.cls-31,.cls-35,.cls-38,.cls-41{opacity:0.75;mix-blend-mode:screen;}.cls-22{fill:url(#Áåçûìÿííûé_ãðàäèåíò_76);}.cls-23{fill:url(#Áåçûìÿííûé_ãðàäèåíò_63-2);}.cls-24{mask:url(#mask-9);}.cls-25{fill:url(#Áåçûìÿííûé_ãðàäèåíò_76-2);}.cls-26{fill:url(#Áåçûìÿííûé_ãðàäèåíò_63-3);}.cls-27{mask:url(#mask-10);}.cls-28{fill:url(#Áåçûìÿííûé_ãðàäèåíò_76-3);}.cls-29{fill:url(#Áåçûìÿííûé_ãðàäèåíò_63-4);}.cls-30{mask:url(#mask-11);}.cls-31{fill:url(#Áåçûìÿííûé_ãðàäèåíò_76-4);}.cls-32{fill:url(#Áåçûìÿííûé_ãðàäèåíò_63-5);}.cls-34{mask:url(#mask-12);}.cls-35{fill:url(#Áåçûìÿííûé_ãðàäèåíò_76-5);}.cls-36{fill:url(#Áåçûìÿííûé_ãðàäèåíò_63-6);}.cls-37{mask:url(#mask-13);}.cls-38{fill:url(#Áåçûìÿííûé_ãðàäèåíò_76-6);}.cls-39{fill:url(#Áåçûìÿííûé_ãðàäèåíò_63-7);}.cls-40{mask:url(#mask-14);}.cls-41{fill:url(#Áåçûìÿííûé_ãðàäèåíò_76-7);}.cls-42{filter:url(#luminosity-noclip-7);}.cls-43{filter:url(#luminosity-noclip-6);}.cls-44{filter:url(#luminosity-noclip-5);}.cls-45{filter:url(#luminosity-noclip-4);}.cls-46{filter:url(#luminosity-noclip-3);}.cls-47{filter:url(#luminosity-noclip-2);}.cls-48{filter:url(#luminosity-noclip);}</style><filter id="luminosity-noclip" x="143.17" y="-2713.06" width="41.56" height="32766" filterUnits="userSpaceOnUse" color-interpolation-filters="sRGB"><feFlood flood-color="#fff" result="bg"/><feBlend in="SourceGraphic" in2="bg"/></filter><mask id="mask" x="143.17" y="-2713.06" width="41.56" height="32766" maskUnits="userSpaceOnUse"><g class="cls-48"/></mask><linearGradient id="Áåçûìÿííûé_ãðàäèåíò_37" x1="-653.33" y1="-688.57" x2="-609.67" y2="-688.57" gradientTransform="translate(891.18 624.63) rotate(-8.56)" gradientUnits="userSpaceOnUse"><stop offset="0" stop-color="#fff"/><stop offset="0.11" stop-color="#fafafa"/><stop offset="0.24" stop-color="#ececec"/><stop offset="0.38" stop-color="#d4d4d4"/><stop offset="0.53" stop-color="#b2b2b2"/><stop offset="0.69" stop-color="#878787"/><stop offset="0.85" stop-color="#545454"/><stop offset="1" stop-color="#1a1a1a"/></linearGradient><filter id="luminosity-noclip-2" x="506.63" y="-2713.06" width="27.82" height="32766" filterUnits="userSpaceOnUse" color-interpolation-filters="sRGB"><feFlood flood-color="#fff" result="bg"/><feBlend in="SourceGraphic" in2="bg"/></filter><mask id="mask-2" x="506.63" y="-2713.06" width="27.82" height="32766" maskUnits="userSpaceOnUse"><g class="cls-47"/></mask><linearGradient id="Áåçûìÿííûé_ãðàäèåíò_37-2" x1="-330.84" y1="-388.02" x2="-301.63" y2="-388.02" xlink:href="#Áåçûìÿííûé_ãðàäèåíò_37"/><filter id="luminosity-noclip-3" x="355.77" y="-2713.06" width="45.52" height="32766" filterUnits="userSpaceOnUse" color-interpolation-filters="sRGB"><feFlood flood-color="#fff" result="bg"/><feBlend in="SourceGraphic" in2="bg"/></filter><mask id="mask-3" x="355.77" y="-2713.06" width="45.52" height="32766" maskUnits="userSpaceOnUse"><g class="cls-46"/></mask><linearGradient id="Áåçûìÿííûé_ãðàäèåíò_37-3" x1="-486.03" y1="-372.21" x2="-438.23" y2="-372.21" xlink:href="#Áåçûìÿííûé_ãðàäèåíò_37"/><filter id="luminosity-noclip-4" x="117.35" y="-2713.06" width="33.97" height="32766" filterUnits="userSpaceOnUse" color-interpolation-filters="sRGB"><feFlood flood-color="#fff" result="bg"/><feBlend in="SourceGraphic" in2="bg"/></filter><mask id="mask-4" x="117.35" y="-2713.06" width="33.97" height="32766" maskUnits="userSpaceOnUse"><g class="cls-45"/></mask><linearGradient id="Áåçûìÿííûé_ãðàäèåíò_37-4" x1="-716.41" y1="-442.33" x2="-680.74" y2="-442.33" xlink:href="#Áåçûìÿííûé_ãðàäèåíò_37"/><filter id="luminosity-noclip-5" x="56.27" y="-2713.06" width="19.51" height="32766" filterUnits="userSpaceOnUse" color-interpolation-filters="sRGB"><feFlood flood-color="#fff" result="bg"/><feBlend in="SourceGraphic" in2="bg"/></filter><mask id="mask-5" x="56.27" y="-2713.06" width="19.51" height="32766" maskUnits="userSpaceOnUse"><g class="cls-44"/></mask><linearGradient id="Áåçûìÿííûé_ãðàäèåíò_37-5" x1="-744.48" y1="-664.68" x2="-723.99" y2="-664.68" xlink:href="#Áåçûìÿííûé_ãðàäèåíò_37"/><filter id="luminosity-noclip-6" x="462.99" y="-2713.06" width="24.21" height="32766" filterUnits="userSpaceOnUse" color-interpolation-filters="sRGB"><feFlood flood-color="#fff" result="bg"/><feBlend in="SourceGraphic" in2="bg"/></filter><mask id="mask-6" x="462.99" y="-2713.06" width="24.21" height="32766" maskUnits="userSpaceOnUse"><g class="cls-43"/></mask><linearGradient id="Áåçûìÿííûé_ãðàäèåíò_37-6" x1="-341.45" y1="-610.36" x2="-316.02" y2="-610.36" xlink:href="#Áåçûìÿííûé_ãðàäèåíò_37"/><filter id="luminosity-noclip-7" x="12.58" y="-2713.06" width="37.56" height="32766" filterUnits="userSpaceOnUse" color-interpolation-filters="sRGB"><feFlood flood-color="#fff" result="bg"/><feBlend in="SourceGraphic" in2="bg"/></filter><mask id="mask-7" x="12.58" y="-2713.06" width="37.56" height="32766" maskUnits="userSpaceOnUse"><g class="cls-42"/></mask><linearGradient id="Áåçûìÿííûé_ãðàäèåíò_37-7" x1="-805.85" y1="-552.25" x2="-766.41" y2="-552.25" xlink:href="#Áåçûìÿííûé_ãðàäèåíò_37"/><radialGradient id="Áåçûìÿííûé_ãðàäèåíò_63" cx="219.68" cy="107.24" r="96.8" gradientTransform="translate(92.91 -114.2) rotate(45)" gradientUnits="userSpaceOnUse"><stop offset="0" stop-color="#83f7c7"/><stop offset="0.1" stop-color="#60e7ca"/><stop offset="0.2" stop-color="#41d8cd"/><stop offset="0.31" stop-color="#2acece"/><stop offset="0.4" stop-color="#1dc7d0"/><stop offset="0.49" stop-color="#18c5d0"/><stop offset="0.76" stop-color="#65e5d7"/><stop offset="1" stop-color="#a5ffdc"/></radialGradient><filter id="luminosity-noclip-8" x="143.17" y="17.14" width="41.56" height="40.86" filterUnits="userSpaceOnUse" color-interpolation-filters="sRGB"><feFlood flood-color="#fff" result="bg"/><feBlend in="SourceGraphic" in2="bg"/></filter><mask id="mask-8" x="143.17" y="17.14" width="41.56" height="40.86" maskUnits="userSpaceOnUse"><g class="cls-1"><path class="cls-2" d="M163.64,56.45c9-4,16.8-11.42,19.91-20.79a18.94,18.94,0,0,0,.93-9.48,11.18,11.18,0,0,0-5.2-7.74c-3.58-2-8.06-1.4-12-.12-9,2.95-22,11.72-23.83,21.88C141.16,53.05,152,61.66,163.64,56.45Z"/></g></mask><linearGradient id="Áåçûìÿííûé_ãðàäèåíò_76" x1="-653.33" y1="-688.57" x2="-609.67" y2="-688.57" gradientTransform="translate(891.18 624.63) rotate(-8.56)" gradientUnits="userSpaceOnUse"><stop offset="0" stop-color="#fff7cc"/><stop offset="1" stop-color="#fff7cc"/></linearGradient><radialGradient id="Áåçûìÿííûé_ãðàäèåíò_63-2" cx="179.86" cy="348.03" r="79.1" gradientTransform="translate(428.65 108.07) rotate(80.91)" xlink:href="#Áåçûìÿííûé_ãðàäèåíò_63"/><filter id="luminosity-noclip-9" x="117.35" y="274.4" width="33.97" height="33.39" filterUnits="userSpaceOnUse" color-interpolation-filters="sRGB"><feFlood flood-color="#fff" result="bg"/><feBlend in="SourceGraphic" in2="bg"/></filter><mask id="mask-9" x="117.35" y="274.4" width="33.97" height="33.39" maskUnits="userSpaceOnUse"><g class="cls-7"><path class="cls-8" d="M134.07,306.52c7.37-3.3,13.73-9.32,16.27-17a15.53,15.53,0,0,0,.76-7.75,9.14,9.14,0,0,0-4.25-6.33c-2.92-1.64-6.58-1.14-9.77-.09-7.32,2.41-18,9.58-19.47,17.87C115.7,303.75,124.57,310.78,134.07,306.52Z"/></g></mask><linearGradient id="Áåçûìÿííûé_ãðàäèåíò_76-2" x1="-716.41" y1="-442.33" x2="-680.74" y2="-442.33" xlink:href="#Áåçûìÿííûé_ãðàäèåíò_76"/><radialGradient id="Áåçûìÿííûé_ãðàäèåíò_63-3" cx="92.18" cy="109.28" r="45.43" gradientTransform="matrix(1, 0, 0, 1, 0, 0)" xlink:href="#Áåçûìÿííûé_ãðàäèåíò_63"/><filter id="luminosity-noclip-10" x="56.27" y="66.99" width="19.51" height="19.18" filterUnits="userSpaceOnUse" color-interpolation-filters="sRGB"><feFlood flood-color="#fff" result="bg"/><feBlend in="SourceGraphic" in2="bg"/></filter><mask id="mask-10" x="56.27" y="66.99" width="19.51" height="19.18" maskUnits="userSpaceOnUse"><g class="cls-9"><path class="cls-10" d="M65.88,85.44a17,17,0,0,0,9.35-9.76,9,9,0,0,0,.43-4.45,5.21,5.21,0,0,0-2.44-3.63c-1.68-.95-3.78-.66-5.61-.06C63.4,68.93,57.29,73,56.42,77.81,55.33,83.84,60.43,87.88,65.88,85.44Z"/></g></mask><linearGradient id="Áåçûìÿííûé_ãðàäèåíò_76-3" x1="-744.48" y1="-664.68" x2="-723.99" y2="-664.68" xlink:href="#Áåçûìÿííûé_ãðàäèåíò_76"/><radialGradient id="Áåçûìÿííûé_ãðàäèåíò_63-4" cx="507.55" cy="110.48" r="56.38" gradientTransform="translate(487.77 -413.4) rotate(80.76)" xlink:href="#Áåçûìÿííûé_ãðàäèåíò_63"/><filter id="luminosity-noclip-11" x="462.99" y="58" width="24.21" height="23.8" filterUnits="userSpaceOnUse" color-interpolation-filters="sRGB"><feFlood flood-color="#fff" result="bg"/><feBlend in="SourceGraphic" in2="bg"/></filter><mask id="mask-11" x="462.99" y="58" width="24.21" height="23.8" maskUnits="userSpaceOnUse"><g class="cls-11"><path class="cls-12" d="M474.91,80.9c5.25-2.35,9.78-6.65,11.6-12.11a11.07,11.07,0,0,0,.54-5.52,6.52,6.52,0,0,0-3-4.51c-2.09-1.17-4.7-.82-7-.07-5.21,1.72-12.8,6.83-13.88,12.74C461.81,78.92,468.14,83.93,474.91,80.9Z"/></g></mask><linearGradient id="Áåçûìÿííûé_ãðàäèåíò_76-4" x1="-341.45" y1="-610.36" x2="-316.02" y2="-610.36" xlink:href="#Áåçûìÿííûé_ãðàäèåíò_76"/><radialGradient id="Áåçûìÿííûé_ãðàäèåíò_63-5" cx="81.7" cy="258.37" r="87.46" gradientTransform="translate(163.92 26.69) rotate(45)" xlink:href="#Áåçûìÿííûé_ãðàäèåíò_63"/><filter id="luminosity-noclip-12" x="12.58" y="176.96" width="37.56" height="36.92" filterUnits="userSpaceOnUse" color-interpolation-filters="sRGB"><feFlood flood-color="#fff" result="bg"/><feBlend in="SourceGraphic" in2="bg"/></filter><mask id="mask-12" x="12.58" y="176.96" width="37.56" height="36.92" maskUnits="userSpaceOnUse"><g class="cls-13"><path class="cls-14" d="M31.08,212.48c8.14-3.65,15.17-10.31,18-18.78a17.41,17.41,0,0,0,.84-8.57,10.17,10.17,0,0,0-4.71-7c-3.23-1.81-7.28-1.26-10.8-.1-8.1,2.66-19.87,10.59-21.53,19.76C10.76,209.41,20.57,217.19,31.08,212.48Z"/></g></mask><linearGradient id="Áåçûìÿííûé_ãðàäèåíò_76-5" x1="-805.85" y1="-552.25" x2="-766.41" y2="-552.25" xlink:href="#Áåçûìÿííûé_ãðàäèåíò_76"/><radialGradient id="Áåçûìÿííûé_ãðàäèåíò_63-6" cx="557.83" cy="334.53" r="64.78" gradientTransform="matrix(1, 0, 0, 1, 0, 0)" xlink:href="#Áåçûìÿííûé_ãðàäèåíò_63"/><filter id="luminosity-noclip-13" x="506.63" y="274.23" width="27.82" height="27.34" filterUnits="userSpaceOnUse" color-interpolation-filters="sRGB"><feFlood flood-color="#fff" result="bg"/><feBlend in="SourceGraphic" in2="bg"/></filter><mask id="mask-13" x="506.63" y="274.23" width="27.82" height="27.34" maskUnits="userSpaceOnUse"><g class="cls-3"><path class="cls-4" d="M520.33,300.54c6-2.71,11.25-7.64,13.33-13.91a12.75,12.75,0,0,0,.62-6.35,7.51,7.51,0,0,0-3.48-5.18c-2.4-1.35-5.39-.94-8-.08-6,2-14.71,7.85-15.94,14.64C505.29,298.26,512.55,304,520.33,300.54Z"/></g></mask><linearGradient id="Áåçûìÿííûé_ãðàäèåíò_76-6" x1="-330.84" y1="-388.02" x2="-301.63" y2="-388.02" xlink:href="#Áåçûìÿííûé_ãðàäèåíò_76"/><radialGradient id="Áåçûìÿííûé_ãðàäèåíò_63-7" cx="439.55" cy="401.48" r="106" gradientTransform="translate(636.79 -128.46) rotate(75.86)" xlink:href="#Áåçûìÿííûé_ãðàäèåíò_63"/><filter id="luminosity-noclip-14" x="355.77" y="302.81" width="45.52" height="44.74" filterUnits="userSpaceOnUse" color-interpolation-filters="sRGB"><feFlood flood-color="#fff" result="bg"/><feBlend in="SourceGraphic" in2="bg"/></filter><mask id="mask-14" x="355.77" y="302.81" width="45.52" height="44.74" maskUnits="userSpaceOnUse"><g class="cls-5"><path class="cls-6" d="M378.19,345.86c9.87-4.43,18.4-12.5,21.81-22.77a20.89,20.89,0,0,0,1-10.38,12.3,12.3,0,0,0-5.69-8.48c-3.92-2.2-8.83-1.53-13.1-.12-9.81,3.22-24.08,12.83-26.1,23.95C353.57,342.13,365.46,351.56,378.19,345.86Z"/></g></mask><linearGradient id="Áåçûìÿííûé_ãðàäèåíò_76-7" x1="-486.03" y1="-372.21" x2="-438.23" y2="-372.21" xlink:href="#Áåçûìÿííûé_ãðàäèåíò_76"/></defs><g class="cls-15"><g id="Layer_2" data-name="Layer 2"><g id="Layer_1-2" data-name="Layer 1"><circle class="cls-16" cx="184.3" cy="55.05" r="55.05" transform="translate(15.05 146.44) rotate(-45)"/><g class="cls-17"><polygon class="cls-18" points="189.86 37.49 200.11 37.49 200.11 27.25 189.86 27.25 179.61 27.25 169.36 27.25 169.36 37.49 179.61 37.49 189.86 37.49"/><polygon class="cls-18" points="179.61 78.49 179.61 68.24 169.36 68.24 169.36 57.99 169.36 47.74 169.36 37.49 159.11 37.49 159.11 47.74 159.11 57.99 159.11 68.24 159.11 78.49 169.36 78.49 169.36 88.74 179.61 88.74 189.86 88.74 200.11 88.74 200.11 78.49 189.86 78.49 179.61 78.49"/><polygon class="cls-18" points="189.86 57.99 189.86 47.74 179.61 47.74 179.61 57.99 179.61 68.24 189.86 68.24 189.86 57.99"/><polygon class="cls-18" points="200.11 37.49 189.86 37.49 189.86 47.74 200.11 47.74 200.11 57.99 200.11 68.24 200.11 78.49 210.36 78.49 210.36 68.24 210.36 57.99 210.36 47.74 210.36 37.49 200.11 37.49"/></g><path class="cls-19" d="M202.17,11.8c.45.58.88,1.15,1.2,1.59,14.3,17.52,10.71,45.49-6.79,59.7-16.91,13.75-38.06,10.4-55.23-.1,4.55,17.57,26,28.87,43,28.87A46.8,46.8,0,0,0,202.17,11.8Z"/><path class="cls-20" d="M213.67,19.33l-1.27-.48c-.81-.34-2-.77-3.6-1.28a54.18,54.18,0,0,0-13.36-2.37,51.29,51.29,0,0,0-18.8,2.63,49.7,49.7,0,0,0-30.38,30.71,50.88,50.88,0,0,0-2.37,18.82,53.7,53.7,0,0,0,2.56,13.31c.54,1.56,1,2.79,1.33,3.59s.51,1.26.51,1.26l-.95-1a36.9,36.9,0,0,1-2.59-3,44,44,0,0,1-6.92-13,46.8,46.8,0,0,1-1.7-22.48,47,47,0,0,1,60.45-37,43.93,43.93,0,0,1,13.11,6.73,38.5,38.5,0,0,1,3,2.54Z"/><g class="cls-21"><path class="cls-22" d="M163.64,56.45c9-4,16.8-11.42,19.91-20.79a18.94,18.94,0,0,0,.93-9.48,11.18,11.18,0,0,0-5.2-7.74c-3.58-2-8.06-1.4-12-.12-9,2.95-22,11.72-23.83,21.88C141.16,53.05,152,61.66,163.64,56.45Z"/></g><circle class="cls-23" cx="150.95" cy="305.38" r="44.98" transform="translate(-174.44 406.18) rotate(-80.91)"/><g class="cls-17"><polygon class="cls-18" points="155.5 291.04 163.87 291.04 163.87 282.66 155.5 282.66 147.12 282.66 138.75 282.66 138.75 291.04 147.12 291.04 155.5 291.04"/><polygon class="cls-18" points="147.12 324.54 147.12 316.16 138.75 316.16 138.75 307.79 138.75 299.41 138.75 291.04 130.37 291.04 130.37 299.41 130.37 307.79 130.37 316.16 130.37 324.54 138.75 324.54 138.75 332.91 147.12 332.91 155.5 332.91 163.87 332.91 163.87 324.54 155.5 324.54 147.12 324.54"/><polygon class="cls-18" points="155.5 307.79 155.5 299.41 147.12 299.41 147.12 307.79 147.12 316.16 155.5 316.16 155.5 307.79"/><polygon class="cls-18" points="163.87 291.04 155.5 291.04 155.5 299.41 163.87 299.41 163.87 307.79 163.87 316.16 163.87 324.54 172.25 324.54 172.25 316.16 172.25 307.79 172.25 299.41 172.25 291.04 163.87 291.04"/></g><path class="cls-19" d="M165.56,270c.36.47.72.94,1,1.3,11.68,14.31,8.75,37.17-5.55,48.79-13.82,11.23-31.1,8.49-45.13-.09,3.72,14.36,21.25,23.59,35.09,23.59A38.24,38.24,0,0,0,165.56,270Z"/><path class="cls-20" d="M175,276.2l-1-.4c-.66-.28-1.67-.63-2.95-1a44.19,44.19,0,0,0-10.91-1.94A42.06,42.06,0,0,0,144.7,275a40.71,40.71,0,0,0-24.83,25.1,41.57,41.57,0,0,0-1.94,15.38,43.81,43.81,0,0,0,2.1,10.88c.43,1.27.8,2.27,1.09,2.93l.41,1-.78-.79a30.54,30.54,0,0,1-2.11-2.42A35.65,35.65,0,0,1,113,316.44a38.4,38.4,0,0,1,48-48.58,35.86,35.86,0,0,1,10.71,5.5,27.65,27.65,0,0,1,2.45,2.07C174.68,275.93,175,276.2,175,276.2Z"/><g class="cls-24"><path class="cls-25" d="M134.07,306.52c7.37-3.3,13.73-9.32,16.27-17a15.53,15.53,0,0,0,.76-7.75,9.14,9.14,0,0,0-4.25-6.33c-2.92-1.64-6.58-1.14-9.77-.09-7.32,2.41-18,9.58-19.47,17.87C115.7,303.75,124.57,310.78,134.07,306.52Z"/></g><circle class="cls-26" cx="75.58" cy="84.78" r="25.84"/><g class="cls-17"><polygon class="cls-18" points="78.19 76.54 83 76.54 83 71.73 78.19 71.73 73.38 71.73 68.57 71.73 68.57 76.54 73.38 76.54 78.19 76.54"/><polygon class="cls-18" points="73.38 95.78 73.38 90.97 68.57 90.97 68.57 86.16 68.57 81.35 68.57 76.54 63.76 76.54 63.76 81.35 63.76 86.16 63.76 90.97 63.76 95.78 68.57 95.78 68.57 100.6 73.38 100.6 78.19 100.6 83 100.6 83 95.78 78.19 95.78 73.38 95.78"/><polygon class="cls-18" points="78.19 86.16 78.19 81.35 73.38 81.35 73.38 86.16 73.38 90.97 78.19 90.97 78.19 86.16"/><polygon class="cls-18" points="83 76.54 78.19 76.54 78.19 81.35 83 81.35 83 86.16 83 90.97 83 95.78 87.81 95.78 87.81 90.97 87.81 86.16 87.81 81.35 87.81 76.54 83 76.54"/></g><path class="cls-19" d="M84,64.48c.21.27.41.54.56.75,6.71,8.22,5,21.35-3.19,28-7.94,6.45-17.86,4.88-25.92,0,2.14,8.25,12.21,13.55,20.16,13.55A22,22,0,0,0,84,64.48Z"/><path class="cls-20" d="M89.36,68l-.59-.23c-.38-.16-1-.36-1.69-.6a25.32,25.32,0,0,0-6.27-1.11A23.93,23.93,0,0,0,72,67.31,23.36,23.36,0,0,0,57.73,81.72a24,24,0,0,0-1.12,8.84,25.49,25.49,0,0,0,1.2,6.25c.25.73.46,1.31.63,1.68s.24.59.24.59-.16-.15-.45-.45A16.8,16.8,0,0,1,57,97.24a20.36,20.36,0,0,1-3.25-6.11,21.79,21.79,0,0,1,5.31-22.32,21.87,21.87,0,0,1,22.26-5.58,20.24,20.24,0,0,1,6.15,3.16,15,15,0,0,1,1.41,1.19Z"/><g class="cls-27"><path class="cls-28" d="M65.88,85.44a17,17,0,0,0,9.35-9.76,9,9,0,0,0,.43-4.45,5.21,5.21,0,0,0-2.44-3.63c-1.68-.95-3.78-.66-5.61-.06C63.4,68.93,57.29,73,56.42,77.81,55.33,83.84,60.43,87.88,65.88,85.44Z"/></g><circle class="cls-29" cx="486.94" cy="80.08" r="32.06" transform="translate(329.69 547.84) rotate(-80.76)"/><g class="cls-17"><polygon class="cls-18" points="490.18 69.86 496.15 69.86 496.15 63.89 490.18 63.89 484.21 63.89 478.24 63.89 478.24 69.86 484.21 69.86 490.18 69.86"/><polygon class="cls-18" points="484.21 93.74 484.21 87.77 478.24 87.77 478.24 81.8 478.24 75.83 478.24 69.86 472.27 69.86 472.27 75.83 472.27 81.8 472.27 87.77 472.27 93.74 478.24 93.74 478.24 99.71 484.21 99.71 490.18 99.71 496.15 99.71 496.15 93.74 490.18 93.74 484.21 93.74"/><polygon class="cls-18" points="490.18 81.8 490.18 75.83 484.21 75.83 484.21 81.8 484.21 87.77 490.18 87.77 490.18 81.8"/><polygon class="cls-18" points="496.15 69.86 490.18 69.86 490.18 75.83 496.15 75.83 496.15 81.8 496.15 87.77 496.15 93.74 502.12 93.74 502.12 87.77 502.12 81.8 502.12 75.83 502.12 69.86 496.15 69.86"/></g><path class="cls-19" d="M497.35,54.89l.7.93c8.33,10.2,6.24,26.49-3.95,34.77-9.86,8-22.17,6.06-32.17-.06,2.65,10.23,15.14,16.82,25,16.82a27.26,27.26,0,0,0,10.41-52.46Z"/><path class="cls-20" d="M504.05,59.28l-.74-.28c-.47-.2-1.19-.45-2.1-.75a31.84,31.84,0,0,0-7.78-1.38,30,30,0,0,0-10.95,1.53,29,29,0,0,0-17.69,17.89,29.62,29.62,0,0,0-1.39,11A31.82,31.82,0,0,0,464.9,95c.31.9.57,1.62.77,2.09l.3.73-.55-.56a21.13,21.13,0,0,1-1.51-1.73,25.15,25.15,0,0,1-4-7.57A27.37,27.37,0,0,1,494.1,53.34a25.37,25.37,0,0,1,7.63,3.92,21,21,0,0,1,1.75,1.48Z"/><g class="cls-30"><path class="cls-31" d="M474.91,80.9c5.25-2.35,9.78-6.65,11.6-12.11a11.07,11.07,0,0,0,.54-5.52,6.52,6.52,0,0,0-3-4.51c-2.09-1.17-4.7-.82-7-.07-5.21,1.72-12.8,6.83-13.88,12.74C461.81,78.92,468.14,83.93,474.91,80.9Z"/></g><circle class="cls-32" cx="49.74" cy="211.21" r="49.74" transform="translate(-134.78 97.03) rotate(-45)"/><polygon class="cls-33" points="55.82 228.56 55.82 185.19 47.15 185.19 47.15 193.87 38.47 193.87 38.47 202.54 47.15 202.54 47.15 228.56 38.47 228.56 38.47 237.24 47.15 237.24 55.82 237.24 64.5 237.24 64.5 228.56 55.82 228.56"/><path class="cls-19" d="M65.89,172.14,67,173.57c12.91,15.83,9.67,41.1-6.14,54-15.29,12.42-34.39,9.39-49.91-.1,4.12,15.88,23.5,26.09,38.81,26.09a42.28,42.28,0,0,0,16.15-81.37Z"/><path class="cls-20" d="M76.28,178.94l-1.2-.35c-.77-.25-1.93-.55-3.38-.9a51,51,0,0,0-12.12-1.28,47.48,47.48,0,0,0-16.26,3.16,46.85,46.85,0,0,0-25.95,26.24,47.18,47.18,0,0,0-3,16.29,50.32,50.32,0,0,0,1.46,12.09c.37,1.45.69,2.6.95,3.36l.37,1.2-.94-.82a30.67,30.67,0,0,1-2.59-2.55,38.16,38.16,0,0,1-7.1-11.7,42,42,0,0,1-2.35-21A43.41,43.41,0,0,1,40,166.47a42.14,42.14,0,0,1,21.06,2.06,38.19,38.19,0,0,1,11.79,6.94A28.9,28.9,0,0,1,75.44,178Z"/><g class="cls-34"><path class="cls-35" d="M31.08,212.48c8.14-3.65,15.17-10.31,18-18.78a17.41,17.41,0,0,0,.84-8.57,10.17,10.17,0,0,0-4.71-7c-3.23-1.81-7.28-1.26-10.8-.1-8.1,2.66-19.87,10.59-21.53,19.76C10.76,209.41,20.57,217.19,31.08,212.48Z"/></g><circle class="cls-36" cx="534.16" cy="299.6" r="36.84"/><polygon class="cls-33" points="538.66 312.45 538.66 280.32 532.24 280.32 532.24 286.75 525.81 286.75 525.81 293.18 532.24 293.18 532.24 312.45 525.81 312.45 525.81 318.88 532.24 318.88 538.66 318.88 545.09 318.88 545.09 312.45 538.66 312.45"/><path class="cls-19" d="M546.12,270.66c.3.38.59.77.8,1.06,9.57,11.72,7.17,30.44-4.54,40-11.32,9.2-25.47,7-37-.07,3,11.75,17.41,19.32,28.75,19.32a31.32,31.32,0,0,0,12-60.27Z"/><path class="cls-20" d="M553.82,275.7l-.89-.26c-.57-.19-1.43-.41-2.51-.67a37.87,37.87,0,0,0-9-.95,35.08,35.08,0,0,0-12,2.34,34.74,34.74,0,0,0-19.23,19.44A34.85,34.85,0,0,0,508,307.66a36.83,36.83,0,0,0,1.08,9c.27,1.07.51,1.92.71,2.49s.27.88.27.88l-.7-.6a24.53,24.53,0,0,1-1.92-1.89,28.51,28.51,0,0,1-5.26-8.66,31,31,0,0,1-1.73-15.59,32.15,32.15,0,0,1,26.5-26.8A31.23,31.23,0,0,1,542.54,268a28.44,28.44,0,0,1,8.74,5.13A23.24,23.24,0,0,1,553.2,275Z"/><g class="cls-37"><path class="cls-38" d="M520.33,300.54c6-2.71,11.25-7.64,13.33-13.91a12.75,12.75,0,0,0,.62-6.35,7.51,7.51,0,0,0-3.48-5.18c-2.4-1.35-5.39-.94-8-.08-6,2-14.71,7.85-15.94,14.64C505.29,298.26,512.55,304,520.33,300.54Z"/></g><circle class="cls-39" cx="400.81" cy="344.32" r="60.28" transform="translate(-30.99 648.88) rotate(-75.86)"/><polygon class="cls-33" points="408.18 365.35 408.18 312.79 397.67 312.79 397.67 323.3 387.16 323.3 387.16 333.81 397.67 333.81 397.67 365.35 387.16 365.35 387.16 375.86 397.67 375.86 408.18 375.86 418.7 375.86 418.7 365.35 408.18 365.35"/><path class="cls-19" d="M420.38,297c.49.64,1,1.26,1.32,1.75,15.65,19.18,11.72,49.81-7.44,65.37-18.52,15.06-41.67,11.39-60.48-.11,5,19.24,28.48,31.62,47,31.62A51.25,51.25,0,0,0,420.38,297Z"/><path class="cls-20" d="M433,305.21l-1.46-.42c-.93-.31-2.33-.67-4.09-1.1a61.68,61.68,0,0,0-14.69-1.55A57.55,57.55,0,0,0,393,306a56.8,56.8,0,0,0-31.46,31.8A57.29,57.29,0,0,0,358,357.51a61.79,61.79,0,0,0,1.77,14.66c.46,1.75.84,3.15,1.16,4.07s.45,1.45.45,1.45l-1.15-1a37.33,37.33,0,0,1-3.13-3.09,46.24,46.24,0,0,1-8.61-14.17,50.81,50.81,0,0,1-2.84-25.5A52.62,52.62,0,0,1,389,290.09a51.12,51.12,0,0,1,25.52,2.5A46.41,46.41,0,0,1,428.82,301a38,38,0,0,1,3.15,3.08Z"/><g class="cls-40"><path class="cls-41" d="M378.19,345.86c9.87-4.43,18.4-12.5,21.81-22.77a20.89,20.89,0,0,0,1-10.38,12.3,12.3,0,0,0-5.69-8.48c-3.92-2.2-8.83-1.53-13.1-.12-9.81,3.22-24.08,12.83-26.1,23.95C353.57,342.13,365.46,351.56,378.19,345.86Z"/></g></g></g></g></svg>