<svg xmlns="http://www.w3.org/2000/svg" viewBox="0 0 50 45"><defs><style>.cls-1,.cls-2,.cls-3,.cls-4,.cls-5,.cls-6{fill:none;stroke:#f2f2f2;stroke-miterlimit:10;}.cls-2{stroke-dasharray:0.98 0.98;}.cls-3{stroke-dasharray:1.02 1.02;}.cls-4{stroke-dasharray:1.02 1.02;}.cls-5{stroke-dasharray:0.98 0.98;}.cls-6{stroke-dasharray:0.97 0.97;}.cls-7{fill:#00a859;}</style></defs><g id="Layer_2" data-name="Layer 2"><g id="Layer_1-2" data-name="Layer 1"><polyline class="cls-1" points="25.53 4.42 25.28 3.99 25.03 4.42"/><line class="cls-2" x1="24.55" y1="5.28" x2="4.36" y2="40.72"/><polyline class="cls-1" points="4.12 41.15 3.87 41.58 4.37 41.58"/><line class="cls-3" x1="5.39" y1="41.58" x2="45.68" y2="41.58"/><polyline class="cls-1" points="46.19 41.58 46.69 41.58 46.44 41.15"/><line class="cls-2" x1="45.95" y1="40.29" x2="25.77" y2="4.85"/><line class="cls-1" x1="2.81" y1="41.58" x2="3.27" y2="41.38"/><line class="cls-4" x1="4.21" y1="40.98" x2="24.35" y2="32.3"/><polyline class="cls-1" points="24.82 32.1 25.28 31.9 25.74 32.1"/><line class="cls-5" x1="26.62" y1="32.51" x2="45.73" y2="41.17"/><line class="cls-1" x1="46.17" y1="41.38" x2="46.63" y2="41.58"/><line class="cls-1" x1="25.28" y1="31.9" x2="25.28" y2="31.4"/><line class="cls-6" x1="25.28" y1="30.43" x2="25.28" y2="3.83"/><line class="cls-1" x1="25.28" y1="3.35" x2="25.28" y2="2.85"/><ellipse class="cls-7" cx="47.19" cy="42.15" rx="2.81" ry="2.85"/><ellipse class="cls-7" cx="25.28" cy="2.85" rx="2.81" ry="2.85"/><ellipse class="cls-7" cx="2.81" cy="41.58" rx="2.81" ry="2.85"/></g></g></svg>