<svg xmlns="http://www.w3.org/2000/svg" viewBox="0 0 72.45 65.02"><defs><style>.cls-1,.cls-2,.cls-3,.cls-4,.cls-5,.cls-6,.cls-7{fill:none;stroke:#f2f2f2;stroke-miterlimit:10;}.cls-2{stroke-dasharray:0.98 0.98;}.cls-3{stroke-dasharray:1.02 1.02;}.cls-4{stroke-dasharray:0.99 0.99;}.cls-5{stroke-dasharray:0.99 0.99;}.cls-6{stroke-dasharray:0.96 0.96;}.cls-7{stroke-width:2px;}.cls-8{fill:#00a859;}</style></defs><g id="Layer_2" data-name="Layer 2"><g id="Layer_1-2" data-name="Layer 1"><polyline class="cls-1" points="36.38 16.95 36.13 16.51 35.88 16.95"/><line class="cls-2" x1="35.4" y1="17.8" x2="15.21" y2="53.25"/><polyline class="cls-1" points="14.97 53.67 14.72 54.11 15.22 54.11"/><line class="cls-3" x1="16.24" y1="54.11" x2="56.53" y2="54.11"/><polyline class="cls-1" points="57.04 54.11 57.54 54.11 57.29 53.67"/><line class="cls-2" x1="56.8" y1="52.82" x2="36.62" y2="17.37"/><line class="cls-1" x1="14.72" y1="54.11" x2="15.17" y2="53.89"/><line class="cls-4" x1="16.06" y1="53.46" x2="35.2" y2="44.17"/><polyline class="cls-1" points="35.64 43.96 36.09 43.74 36.54 43.96"/><line class="cls-5" x1="37.43" y1="44.39" x2="56.64" y2="53.67"/><line class="cls-1" x1="57.09" y1="53.89" x2="57.54" y2="54.11"/><line class="cls-1" x1="36.13" y1="43.74" x2="36.13" y2="43.24"/><line class="cls-6" x1="36.13" y1="42.28" x2="36.13" y2="17.72"/><line class="cls-1" x1="36.13" y1="17.24" x2="36.13" y2="16.74"/><polygon class="cls-7" points="36.13 8.19 7.61 58.27 64.65 58.27 36.13 8.19"/><circle class="cls-8" cx="36.15" cy="5" r="5"/><circle class="cls-8" cx="5" cy="60.02" r="5"/><circle class="cls-8" cx="67.45" cy="60.02" r="5"/></g></g></svg>