<svg xmlns="http://www.w3.org/2000/svg" viewBox="0 0 34.22 49.42"><defs><style>.cls-1{fill:#00a859;}.cls-2{fill:#fff;}</style></defs><g id="Layer_2" data-name="Layer 2"><g id="Layer_1-2" data-name="Layer 1"><path class="cls-1" d="M11.75,44.27h3.42v3.38H11.75Z"/><path class="cls-1" d="M19,44.27h3.43v3.38H19Z"/><path class="cls-2" d="M0,46.85H34.22v2.57H0Z"/><path class="cls-2" d="M20.45,2A33.76,33.76,0,0,1,25.17,16.7l.4,5.15,1.55-4.92a10.24,10.24,0,0,1,3.22-4.57,48.25,48.25,0,0,0,.5,9.1,44.4,44.4,0,0,1,.46,5.4,14.09,14.09,0,0,1-14.19,14,14.1,14.1,0,0,1-14.2-14C2.91,23.63,4,20.57,5,17.61a37.22,37.22,0,0,0,1.83-6.42,24.47,24.47,0,0,1,2.68,3.63l1,1.66.77-1.79A25.46,25.46,0,0,1,16.16,7.6,37,37,0,0,0,20.45,2m-.07-2C17.23,6.22,13,8.22,10.4,14.3A26.57,26.57,0,0,0,6.05,8.91c0,5.77-4.14,11.39-4.14,18a15.09,15.09,0,0,0,15.2,15,15.09,15.09,0,0,0,15.19-15c0-4.68-1.61-9.91-.79-16.3-3.93,1.56-5.34,6.07-5.34,6.07A34.68,34.68,0,0,0,20.38,0Z"/><path class="cls-2" d="M18,23.06h0v0l0,0,.43.25,0-.05L18,23.06Zm-.58.88h0l0,0,.4.3,0,0-.39-.3Zm-.07.08-.1.13h0c-.14.18-.28.34-.42.51h0l-.08.09.39.32.07-.09c.19-.22.38-.45.57-.7L17.36,24Zm-.67.82,0,0h0l.39.32,0,0-.38-.32Zm-.65.83,0,0h0l.41.29,0-.05L16,25.67Zm-.06.09a4.33,4.33,0,0,0-.36.6h0l-.12.24.46.21a6.3,6.3,0,0,1,.45-.8L16,25.76Zm-.52.92h0v0l.45.2,0,0-.46-.21Zm-.37,1,0,.06.48.14,0-.05-.48-.15Zm0,.11v0h0c0,.17-.09.36-.14.55-.06-.11-.12-.22-.19-.33l-.43.25.18.33.63,1.12.3-1.25a4.45,4.45,0,0,1,.15-.58l-.48-.14Zm-.4.18-.43.25,0,.05.44-.25,0,0h0v0Zm-.56-.9-.41.29,0,0,.41-.28h0Zm-.65-.82-.37.34a5.84,5.84,0,0,1,.58.72l.41-.28L14,27H14c-.12-.15-.23-.3-.35-.44h0l-.14-.15Zm-.08-.08L13,26.5l0,0,.36-.35,0,0Zm-1-.71c0,.23,0,.46,0,.69h0v0h0l.5.06a5,5,0,0,0,.05-.65,2.82,2.82,0,0,0-.49-.25Zm-.07.89v.06l.49.07V26.4l-.5-.07Zm-.19,1,0,.05.49.12v-.06l-.48-.11Zm0,.1c0,.05,0,.1,0,.15h0c0,.19-.09.37-.14.56h0a1.33,1.33,0,0,1-.05.19l.48.14q.15-.49.27-1L12,27.47Zm-.28,1v.06l.48.14v-.06l-.48-.14Zm-.3,1v.06l.48.14v-.05l-.48-.15Zm0,.11,0,.13h0c-.07.23-.13.47-.2.7h0l0,.05.48.13.27-.95-.48-.14Zm-.28,1h0v0h0l.49.12v-.05l-.48-.12Zm-.24,1v0h0v0l.49.09v-.05l-.49-.1Zm0,.11a.59.59,0,0,0,0,.13h0c0,.25-.08.5-.1.75l.5,0c0-.29.07-.6.13-.94l-.49-.09Zm-.14,1.05v0h0l.5,0v0l-.5,0Zm.49,1-.5,0v0l.5,0v0Zm0,.1-.5,0c0,.05,0,.11,0,.16h0v0h0a5,5,0,0,0,.13.67h0v0h0l.48-.12a6.93,6.93,0,0,1-.16-.91Zm.18.95-.49.14,0,.05h0l.48-.14v-.05Zm.33.92-.46.21v0h0v0l.45-.22,0,0Zm0,.09-.45.22a6.65,6.65,0,0,0,.5.86l.41-.28a7.16,7.16,0,0,1-.46-.8Zm.49.84-.41.28,0,0h0l0,0,.4-.29,0,0Zm.63.74-.36.35h0l0,0,.35-.35,0,0Zm.07.07-.35.36h0v0h0l0,0h0l.33.29h.15l.18.13.29-.4a5.69,5.69,0,0,1-.7-.6Zm.75.63-.29.41h0l0,0h0l.29-.42,0,0Zm.83.49-.21.45h.05l.21-.45,0,0Zm.1,0-.21.45.11,0h.6l.23.07.13-.48a5.86,5.86,0,0,1-.86-.32Zm.91.33-.13.48h.05l.13-.49Zm.95.17-.05.5h.06l0-.5Zm.1,0,0,.5h1l0-.49H17l-.4,0Zm1,0h0l0,.5h.05l0-.5Zm1-.17h0l.12.49h.05L18.6,39Zm.92-.32a6.41,6.41,0,0,1-.87.31l.13.48.11,0h.48l.1,0h.26l-.21-.45Zm.09,0,0,0,.21.45h0l-.21-.45Zm.84-.49,0,0,.28.41h0l-.29-.41Zm.76-.61a5.62,5.62,0,0,1-.71.58l.28.41a4.59,4.59,0,0,0,.44-.33h.25l.08-.08-.34-.36Zm.07-.08,0,0,.35.36,0,0-.35-.36Zm.63-.74,0,0,.4.3,0-.05-.4-.29Zm.5-.83a7.83,7.83,0,0,1-.47.79l.41.29a6.63,6.63,0,0,0,.48-.81h0l-.44-.22Zm0-.09,0,0,.45.22v0h0l-.45-.21Zm.34-.91,0,0,.48.14v0h0v0l-.48-.13ZM23,34a5.61,5.61,0,0,1-.17.91l.48.13,0,0h0c0-.16.07-.33.1-.49h0v0h0v0h0l0-.23L23,34Zm0-.1v0l.49.05v-.05h0l-.5,0Zm.51-1-.5,0v.06l.5,0v0Zm0-1.05-.5,0c0,.34,0,.66,0,1l.5,0c0-.28,0-.56,0-.84h0a.76.76,0,0,1,0-.15Zm0-.11-.5,0v.05l.5,0v-.06Zm-.07-1.05-.5,0v0l.5,0h0v0Zm0-1.06h-.5c0,.36,0,.7,0,1l.5,0c0-.31,0-.64,0-1Zm0-.11h-.5v.05h.5v-.05Zm-.48-1.07v.06h.5v0h0l-.5,0Zm.06-1.07c0,.36,0,.69-.06,1l.5,0q0-.46.06-1l-.5,0Zm.55-1-.05,0,.08.18s0-.07,0-.1l0-.1Zm-.1,0-.06,0h-.05a3.77,3.77,0,0,0-.48.28h-.05l-.21.16.3.39.11-.08v0l.49,0v0h0l-.48,0a4.63,4.63,0,0,1,.51-.31l0-.26-.12-.25Zm-.9.55h0l.31.4,0,0L22.45,27Zm-.76.73,0,0L22,28l0,0-.37-.33Zm-.07.08-.2.25h0c-.11.15-.21.3-.3.44h0l0,.07.42.26a6,6,0,0,1,.55-.75l-.38-.32Zm-.62.85h0l0,0,.43.26,0-.05L21,28.61Zm-.37.37h-.5v.06h.5V29Zm-.06-1.05-.5.05q0,.48.06,1h.5a2.09,2.09,0,0,0,0-.25h0c0-.23,0-.45-.05-.68Zm0-.11-.49.06v.05l.5-.05v-.05Zm-.16-1-.49.1v.05l.49-.1v0h0v0Zm-.24-1-.48.14c.08.31.16.62.22.93l.49-.1h0c0-.17-.07-.35-.12-.52h0c0-.11-.05-.21-.08-.32Zm0-.1-.48.14v.05l.48-.14v0Zm-.34-1-.46.18,0,0,.46-.17,0-.05Zm-.41-1-.45.21c.13.29.26.59.38.89l.46-.18c-.12-.31-.25-.62-.39-.92Zm-.05-.1-.45.22,0,.05.45-.22h0v0h0Zm-.83-1.46c-.09.19-.17.36-.26.53h0c-.06.13-.13.25-.19.36l.43.25.27-.5.11-.06,0-.05,0,0,0-.05c-.1-.17-.2-.34-.31-.5Z"/><circle class="cls-1" cx="17.47" cy="35.92" r="5"/></g></g></svg>