<svg xmlns="http://www.w3.org/2000/svg" viewBox="0 0 60.44 60.44"><defs><style>.cls-1{fill:#f2f2f2;}.cls-2{fill:#00a859;}</style></defs><g id="Layer_2" data-name="Layer 2"><g id="Layer_1-2" data-name="Layer 1"><path class="cls-1" d="M30.22,15.54h-.89l-.06,0,.5.86a.87.87,0,0,1,.45-.12v-1Zm-1.63,1-.11.17h0l-.42.63.83.56.56-.84-.84-.55Zm-1.1,1.67-.55.83.83.55.55-.83-.83-.55Zm-1.1,1.67,0,0h0l0,0h0l-.5.76.84.55.55-.83-.83-.55Zm-1.11,1.67-.5.76h0l0,0,.84.55.55-.83-.84-.55Zm-1.1,1.66-.31.48h0l-.23.35.83.55.55-.84-.83-.55Zm-1.1,1.67-.55.84.83.55.55-.84-.83-.55ZM22,26.53l-.36.55h0l-.19.27.84.56.55-.84L22,26.53Zm-1.1,1.67-.12.18h0v0h0c-.1.2-.18.39-.27.59l.92.39c.09-.21.18-.4.28-.6l.09-.13-.84-.55ZM20.08,30c-.09.29-.17.58-.23.87h0l1,.2a8.56,8.56,0,0,1,.23-.87l-1-.3ZM19.67,32c0,.26-.05.51-.06.76h0v0h0v0h0v0h0v0h0v0h0v0h0l1,0c0-.3,0-.6.06-.9l-1-.12Zm.95,1.93-1,.07h0a6.53,6.53,0,0,0,.08.76h0a.77.77,0,0,1,0,.15l1-.16c-.05-.3-.09-.6-.11-.9Zm.3,1.78L20,36c0,.13.07.25.11.38h0c0,.16.1.32.16.47l.94-.35a8.63,8.63,0,0,1-.28-.86Zm.63,1.69-.9.44,0,.09h0c.09.18.18.35.28.52h0l.07.12.86-.52a7.74,7.74,0,0,1-.44-.8Zm.94,1.55-.8.6.23.3H22l.3.35.75-.67a7.69,7.69,0,0,1-.58-.7Zm1.21,1.35L23,41a1.8,1.8,0,0,0,.2.19h.21l.06,0h.13l.16.13.61-.8c-.24-.18-.48-.38-.7-.58Zm1.44,1.1-.53.84.15.09h.1l.05,0h.19l0,0h.16l.19.09.44-.89c-.27-.14-.53-.29-.79-.44Zm1.62.8-.36.94.3.11h.1l.44.14h.11l.27-1a8.69,8.69,0,0,1-.86-.29Zm1.74.49-.18,1h.27q.36.06.72.09l.09-1a6.94,6.94,0,0,1-.9-.12Zm2.71.11c-.3,0-.6,0-.91,0v1c.34,0,.67,0,1-.06l-.1-1ZM33,42.42a8.7,8.7,0,0,1-.88.22l.2,1,.15,0h.18l.64-.17-.29-1Zm1.68-.68c-.27.14-.55.27-.82.38l.37.93.56-.25h.1l.25-.13-.46-.89Zm1.52-1c-.24.19-.49.36-.74.53l.54.84.19-.13h0c.2-.13.4-.28.59-.43l-.62-.78Zm1.31-1.25a7.76,7.76,0,0,1-.63.65l.69.73.21-.21h.37l.11-.13-.75-.65Zm1-1.47c-.15.26-.32.51-.49.76l.81.58c.09-.13.19-.27.27-.4h.08v0h0l.05-.08h.12v0l-.86-.5Zm.76-1.64a8.51,8.51,0,0,1-.34.83l.91.43c.14-.31.26-.61.37-.93l-.94-.33Zm.44-1.76c-.05.3-.11.6-.18.89l1,.24,0-.1h0v-.06h0v0h0V35.3h0v-.05h0v0h0a.69.69,0,0,1,0-.13l-1-.15Zm1.1-1.84-1,0c0,.12,0,.24,0,.36s0,.36,0,.54l1,.06c0-.08,0-.15,0-.23h0v0h0v0h0v-.17h0v0h0V32.8Zm-.27-2-1,.23a8.74,8.74,0,0,1,.17.89l1-.14,0-.19h0c0-.24-.08-.48-.14-.72Zm-.64-1.89-.91.4c.12.28.23.56.33.85l.94-.32a8.89,8.89,0,0,0-.36-.93Zm-1-1.73-.83.56.55.83.84-.55-.31-.47h0v0h0l-.23-.34Zm-1.1-1.66-.83.55.55.83.83-.55L38,25.83h0l-.17-.26Zm-1.1-1.67-.84.55.55.83.84-.55-.33-.49h0v0h0l-.2-.31ZM35.61,22.2l-.83.55.55.84.83-.56-.06-.1h0l-.48-.72Zm-1.1-1.67-.84.56.56.83.83-.55h0l-.55-.84ZM33.4,18.87l-.83.55.55.83L34,19.7l-.27-.4-.29-.43ZM32.3,17.2l-.83.55.55.83.83-.55-.55-.83ZM31,15.71l-.41.91a.63.63,0,0,1,.26.22l.05.08.84-.56-.05-.07h0a1.56,1.56,0,0,0-.67-.55Z"/><path class="cls-1" d="M30.22,2a25.38,25.38,0,0,1,6.13.78c-.13.18-.26.37-.38.56a7.37,7.37,0,0,0-.92,2.34,24.49,24.49,0,0,0-4.83-.48,25.12,25.12,0,0,0-13.44,4L14.2,10.82l2.56,1.7,2.34,1.55c-1.67.56-7.62,2.53-11.69,3.82l.4-11.46,2.54,1.83,1.23.88,1.18-.94A28.3,28.3,0,0,1,30.22,2m0-2a30.16,30.16,0,0,0-18.7,6.63L8.62,4.54a1.9,1.9,0,0,0-1-.31,1.66,1.66,0,0,0-.88.24,1.76,1.76,0,0,0-.89,1.67L5.4,18.36A1.77,1.77,0,0,0,7.14,20a1.58,1.58,0,0,0,.63-.13c4.69-1.49,12.46-4.08,12.44-4.08h0a1.82,1.82,0,0,0,1.17-1.46,1.86,1.86,0,0,0-.78-1.69l-2.73-1.81A23.2,23.2,0,0,1,30.22,7.2a22.64,22.64,0,0,1,6.8,1,5.22,5.22,0,0,1,.66-3.86,5.29,5.29,0,0,1,3.06-2.32A29.85,29.85,0,0,0,30.22,0Z"/><path class="cls-1" d="M2.78,24.08a7.3,7.3,0,0,0,2.9,1.32,24.39,24.39,0,0,0-.48,4.82,25.09,25.09,0,0,0,4,13.44l1.66,2.58,1.69-2.55,1.55-2.35C14.63,43,16.6,49,17.89,53l-11.46-.4,1.83-2.54.88-1.23L8.2,47.68A28.26,28.26,0,0,1,2,30.22a25.52,25.52,0,0,1,.78-6.14m-.71-4.37A29.8,29.8,0,0,0,0,30.22a30.16,30.16,0,0,0,6.63,18.7l-2.08,2.9a1.79,1.79,0,0,0-.08,1.92A1.76,1.76,0,0,0,6,54.62h.1l12.22.43a1.76,1.76,0,0,0,1.52-2.38C18.39,48,15.81,40.23,15.8,40.23h0a1.86,1.86,0,0,0-1.46-1.17h-.18a1.89,1.89,0,0,0-1.51.79l-1.81,2.73A23.17,23.17,0,0,1,7.2,30.22a22.89,22.89,0,0,1,1-6.79,5.14,5.14,0,0,1-1.1.12,5.3,5.3,0,0,1-5.07-3.84Z"/><path class="cls-1" d="M53,42.55,52.63,54l-2.54-1.83-1.23-.88-1.18.94a28.26,28.26,0,0,1-17.46,6.2,25.38,25.38,0,0,1-6.13-.78c.13-.18.26-.36.38-.55a7.52,7.52,0,0,0,.92-2.35,24.57,24.57,0,0,0,4.83.48,25.09,25.09,0,0,0,13.44-4l2.58-1.65-2.55-1.69-2.35-1.56C43,45.81,49,43.84,53,42.55m.27-2.12a1.58,1.58,0,0,0-.63.13C48,42.05,40.21,44.64,40.23,44.64h0a1.83,1.83,0,0,0-1.17,1.45,1.89,1.89,0,0,0,.78,1.7l2.73,1.8a23.17,23.17,0,0,1-12.36,3.65,22.64,22.64,0,0,1-6.8-1.05,5.2,5.2,0,0,1-.66,3.87,5.32,5.32,0,0,1-3.06,2.31,29.85,29.85,0,0,0,10.52,2.07,30.14,30.14,0,0,0,18.7-6.63l2.9,2.09a1.94,1.94,0,0,0,1,.32,1.73,1.73,0,0,0,.89-.25,1.76,1.76,0,0,0,.88-1.67l.43-12.22a1.8,1.8,0,0,0-1.75-1.65Z"/><path class="cls-1" d="M42.55,7.41,54,7.81l-1.83,2.54-.88,1.23.94,1.18a28.3,28.3,0,0,1,6.2,17.46,27.06,27.06,0,0,1-.7,6.13,7.42,7.42,0,0,0-3-1.31,24.39,24.39,0,0,0,.48-4.82,25.12,25.12,0,0,0-4-13.44L49.62,14.2l-1.69,2.56L46.37,19.1c-.56-1.68-2.55-7.69-3.82-11.69m-.47-2a1.75,1.75,0,0,0-1.52,2.37c1.49,4.69,4.07,12.44,4.08,12.44h0a1.8,1.8,0,0,0,1.45,1.17h.18a1.91,1.91,0,0,0,1.52-.79l1.8-2.73a23.2,23.2,0,0,1,3.65,12.36,22.89,22.89,0,0,1-1,6.79,5.22,5.22,0,0,1,1.1-.12,5.44,5.44,0,0,1,5.19,3.84,29.71,29.71,0,0,0,1.95-10.51,30.16,30.16,0,0,0-6.63-18.7l2.09-2.9A1.77,1.77,0,0,0,56,6.71a1.74,1.74,0,0,0-1.57-.89h-.1L42.08,5.4Z"/><path class="cls-2" d="M36.8,29.3,31,20.56a1.35,1.35,0,0,0-2.17,0L23,29.43A7.8,7.8,0,1,0,37.73,33,7.9,7.9,0,0,0,36.8,29.3Z"/></g></g></svg>