<svg xmlns="http://www.w3.org/2000/svg" viewBox="0 0 35.13 51.84"><defs><style>.cls-1,.cls-2,.cls-4{fill:none;stroke:#fff;stroke-miterlimit:10;}.cls-2{stroke-dasharray:1 1;}.cls-3{fill:#00a859;}.cls-4{stroke-width:2px;}</style></defs><g id="Layer_2" data-name="Layer 2"><g id="Layer_1-2" data-name="Layer 1"><path class="cls-1" d="M17.79,11l-.26-.42-.27.42"/><path class="cls-2" d="M16.74,11.88C14.82,15,9.88,23,7.11,28.19A11.92,11.92,0,0,0,17.23,45.76h.3c.39,0,.79,0,1.18,0A11.92,11.92,0,0,0,28.1,28.33c-2.82-5.43-8.3-14.14-10-16.87"/><circle class="cls-3" cx="17.7" cy="32.81" r="4.62"/><path class="cls-4" d="M17.51,1.87S7.85,17.27,3,26.36C-2.82,37.23,4.78,50.56,17.1,50.84h.41c.55,0,1.1,0,1.64-.07A16.6,16.6,0,0,0,32.24,26.55C27.53,17.48,17.51,1.87,17.51,1.87Z"/><circle class="cls-3" cx="17.73" cy="32.23" r="5.88"/></g></g></svg>